<?xml version="1.0" encoding="UTF-8" standalone="no"?>
<svg width="211.667mm" height="141.111mm"
 xmlns="http://www.w3.org/2000/svg" xmlns:xlink="http://www.w3.org/1999/xlink"  version="1.2" baseProfile="tiny">
<defs>
</defs>
<g fill="none" stroke="black" stroke-width="1" fill-rule="evenodd" stroke-linecap="square" stroke-linejoin="bevel" >

<g fill="#000000" fill-opacity="1" stroke="#000000" stroke-opacity="1" stroke-width="1" stroke-linecap="square" stroke-linejoin="bevel" transform="matrix(1,0,0,1,0,0)"
font-family="Segoe UI" font-size="9" font-weight="400" font-style="normal" 
>
</g>

<g fill="#ffffff" fill-opacity="1" stroke="#ffffff" stroke-opacity="1" stroke-width="1" stroke-linecap="square" stroke-linejoin="bevel" transform="matrix(1,0,0,1,0,0)"
font-family="Segoe UI" font-size="9" font-weight="400" font-style="normal" 
>
<rect x="0" y="0" width="600" height="400"/>
</g>

<g fill="#000000" fill-opacity="1" stroke="#000000" stroke-opacity="1" stroke-width="1" stroke-linecap="square" stroke-linejoin="bevel" transform="matrix(1,0,0,1,0,0)"
font-family="Segoe UI" font-size="9" font-weight="400" font-style="normal" 
>
</g>

<g fill="#000000" fill-opacity="1" stroke="#000000" stroke-opacity="1" stroke-width="1" stroke-linecap="square" stroke-linejoin="bevel" transform="matrix(1,0,0,1,0,0)"
font-family="Segoe UI" font-size="9" font-weight="400" font-style="normal" 
>
</g>

<g fill="#ffff00" fill-opacity="1" stroke="#000000" stroke-opacity="1" stroke-width="0.5" stroke-linecap="square" stroke-linejoin="bevel" transform="matrix(1,0,0,1,0,0)"
font-family="Segoe UI" font-size="9" font-weight="400" font-style="normal" 
>
<path vector-effect="none" fill-rule="evenodd" d="M151,173 L150,173 L150,172 L149,172 L149,171 L148,171 L148,170 L147,170 L147,169 L146,169 L145,168 L144,168 L144,167 L143,167 L143,166 L142,166 L141,166 L141,165 L140,165 L139,165 L139,164 L138,164 L137,163 L136,163 L135,162 L134,162 L133,162 L133,161 L132,161 L131,161 L130,160 L129,160 L128,160 L127,160 L127,159 L126,159 L125,159 L124,159 L123,159 L122,158 L121,158 L120,158 L119,158 L118,158 L117,158 L116,158 L115,158 L114,158 L113,158 L112,158 L111,158 L110,158 L109,158 L108,158 L107,158 L106,158 L105,158 L104,159 L103,159 L102,159 L101,159 L100,159 L100,160 L99,160 L98,160 L97,160 L96,160 L96,161 L95,161 L94,161 L93,162 L92,162 L91,162 L91,163 L90,163 L89,163 L89,164 L88,164 L87,165 L86,165 L85,166 L84,166 L84,167 L83,167 L82,168 L81,168 L81,169 L80,169 L80,170 L79,170 L78,171 L77,172 L76,173 L75,174 L74,175 L73,176 L73,177 L72,177 L72,178 L71,178 L71,179 L70,179 L70,180 L69,181 L69,182 L68,182 L68,183 L68,184 L67,184 L67,185 L66,186 L66,187 L65,188 L65,189 L64,190 L64,191 L64,192 L63,192 L63,193 L63,194 L63,195 L62,195 L62,196 L62,197 L62,198 L61,199 L61,200 L61,201 L61,202 L61,203 L60,204 L60,205 L60,206 L60,207 L60,208 L60,209 L60,210 L60,211 L60,212 L60,213 L60,214 L60,215 L60,216 L60,217 L60,218 L61,219 L61,220 L61,221 L61,222 L61,223 L62,224 L62,225 L62,226 L62,227 L63,227 L63,228 L63,229 L63,230 L64,230 L64,231 L64,232 L65,233 L65,234 L66,235 L66,236 L67,237 L67,238 L68,238 L68,239 L68,240 L69,240 L69,241 L70,242 L70,243 L71,243 L71,244 L72,244 L72,245 L73,245 L73,246 L74,247 L75,248 L76,249 L77,250 L78,251 L79,252 L80,252 L80,253 L81,253 L81,254 L82,254 L83,255 L84,255 L84,256 L85,256 L86,257 L87,257 L88,258 L89,258 L89,259 L90,259 L91,259 L91,260 L92,260 L93,260 L94,261 L95,261 L96,261 L96,262 L97,262 L98,262 L99,262 L100,262 L100,263 L101,263 L102,263 L103,263 L104,263 L105,264 L106,264 L107,264 L108,264 L109,264 L110,264 L111,264 L112,264 L113,264 L114,264 L115,264 L116,264 L117,264 L118,264 L119,264 L120,264 L121,264 L122,264 L123,263 L124,263 L125,263 L126,263 L127,263 L127,262 L128,262 L129,262 L130,262 L131,261 L132,261 L133,261 L133,260 L134,260 L135,260 L136,259 L137,259 L138,258 L139,258 L139,257 L140,257 L141,257 L141,256 L142,256 L143,256 L143,255 L144,255 L144,254 L145,254 L146,253 L147,253 L147,252 L148,252 L148,251 L149,251 L149,250 L150,250 L150,249 L151,249 L151,248 L152,248 L152,247 L153,247 L153,246 L154,246 L154,245 L155,245 L155,244 L156,243 L156,242 L157,242 L157,241 L158,241 L158,240 L113,211 L151,173"/>
</g>

<g fill="#ff0000" fill-opacity="1" stroke="#000000" stroke-opacity="1" stroke-width="0.5" stroke-linecap="square" stroke-linejoin="bevel" transform="matrix(1,0,0,1,0,0)"
font-family="Segoe UI" font-size="9" font-weight="400" font-style="normal" 
>
<path vector-effect="none" fill-rule="evenodd" d="M220,258 L221,258 L222,258 L223,258 L224,257 L225,257 L225,256 L226,256 L226,255 L227,255 L227,254 L228,254 L228,253 L229,252 L229,251 L230,251 L230,250 L231,250 L231,249 L232,249 L233,248 L234,248 L235,248 L236,248 L237,248 L238,248 L238,249 L239,249 L239,250 L240,250 L240,251 L241,251 L241,252 L242,252 L242,253 L243,253 L243,254 L244,254 L244,255 L245,255 L245,256 L246,257 L247,257 L247,258 L248,258 L249,258 L250,258 L251,258 L251,257 L252,257 L253,257 L253,256 L254,256 L254,255 L255,255 L255,254 L256,254 L256,253 L257,252 L257,251 L258,251 L258,250 L259,250 L259,249 L260,249 L260,248 L261,248 L262,248 L263,248 L264,248 L265,248 L266,248 L266,249 L267,249 L267,250 L268,250 L268,251 L269,251 L269,252 L270,252 L270,253 L271,253 L271,254 L272,255 L273,256 L274,257 L275,257 L275,258 L276,258 L277,258 L278,258 L279,258 L279,257 L280,257 L281,257 L281,256 L282,256 L282,255 L283,255 L283,254 L284,253 L284,252 L285,252 L285,251 L286,251 L286,250 L287,250 L287,249 L288,249 L288,248 L289,248 L290,248 L291,248 L292,248 L293,248 L294,248 L294,249 L295,249 L295,250 L296,250 L296,251 L297,251 L297,252 L298,252 L298,253 L299,253 L299,254 L300,255 L300,256 L301,256 L301,257 L302,257 L303,257 L303,258 L304,258 L304,211 L304,210 L304,209 L304,208 L304,207 L304,206 L303,206 L303,205 L303,204 L303,203 L303,202 L303,201 L302,201 L302,200 L302,199 L302,198 L302,197 L301,197 L301,196 L301,195 L300,195 L300,194 L300,193 L299,192 L299,191 L298,191 L298,190 L298,189 L297,189 L297,188 L296,187 L296,186 L295,186 L295,185 L294,185 L294,184 L293,183 L293,182 L292,182 L292,181 L291,181 L290,180 L289,179 L288,179 L288,178 L287,178 L287,177 L286,177 L286,176 L285,176 L284,176 L284,175 L283,175 L282,175 L282,174 L281,174 L280,173 L279,173 L278,173 L278,172 L277,172 L276,172 L275,171 L274,171 L273,171 L272,171 L272,170 L271,170 L270,170 L269,170 L268,170 L267,170 L267,169 L266,169 L265,169 L264,169 L263,169 L262,169 L261,169 L260,169 L259,169 L258,169 L257,169 L256,170 L255,170 L254,170 L253,170 L252,170 L251,171 L250,171 L249,171 L248,171 L248,172 L247,172 L246,172 L245,173 L244,173 L243,174 L242,174 L241,174 L241,175 L240,175 L240,176 L239,176 L238,176 L238,177 L237,177 L237,178 L236,178 L235,179 L234,179 L234,180 L233,180 L233,181 L232,181 L232,182 L231,182 L231,183 L230,183 L230,184 L229,184 L229,185 L229,186 L228,186 L228,187 L227,187 L227,188 L227,189 L226,189 L226,190 L225,190 L225,191 L225,192 L224,192 L224,193 L224,194 L223,194 L223,195 L223,196 L223,197 L222,197 L222,198 L222,199 L222,200 L221,200 L221,201 L221,202 L221,203 L221,204 L220,205 L220,206 L220,207 L220,208 L220,209 L220,210 L220,211 L220,264 L220,258"/>
</g>

<g fill="#000000" fill-opacity="1" stroke="#000000" stroke-opacity="1" stroke-width="0.5" stroke-linecap="square" stroke-linejoin="bevel" transform="matrix(1,0,0,1,0,0)"
font-family="Segoe UI" font-size="9" font-weight="400" font-style="normal" 
>
<path vector-effect="none" fill-rule="evenodd" d="M267,200 L267,199 L267,198 L266,198 L266,197 L266,196 L265,196 L264,196 L264,195 L263,195 L262,195 L261,195 L260,195 L260,196 L259,196 L258,196 L258,197 L257,197 L257,198 L257,199 L257,200 L257,201 L257,202 L257,203 L258,203 L258,204 L259,204 L259,205 L260,205 L261,205 L261,206 L262,206 L263,206 L263,205 L264,205 L265,205 L265,204 L266,204 L266,203 L267,203 L267,202 L267,201 L267,200"/>
</g>

<g fill="#000000" fill-opacity="1" stroke="#000000" stroke-opacity="1" stroke-width="0.5" stroke-linecap="square" stroke-linejoin="bevel" transform="matrix(1,0,0,1,0,0)"
font-family="Segoe UI" font-size="9" font-weight="400" font-style="normal" 
>
<path vector-effect="none" fill-rule="evenodd" d="M290,200 L290,199 L289,199 L289,198 L289,197 L288,197 L288,196 L287,196 L287,195 L286,195 L285,195 L284,195 L283,195 L282,195 L282,196 L281,196 L281,197 L280,197 L280,198 L279,198 L279,199 L279,200 L279,201 L279,202 L280,202 L280,203 L280,204 L281,204 L281,205 L282,205 L283,205 L283,206 L284,206 L285,206 L286,206 L286,205 L287,205 L288,205 L288,204 L289,204 L289,203 L289,202 L290,202 L290,201 L290,200"/>
</g>

<g fill="#00ff00" fill-opacity="1" stroke="#000000" stroke-opacity="1" stroke-width="0.5" stroke-linecap="square" stroke-linejoin="bevel" transform="matrix(1,0,0,1,0,0)"
font-family="Segoe UI" font-size="9" font-weight="400" font-style="normal" 
>
<path vector-effect="none" fill-rule="evenodd" d="M327,257 L327,258 L328,258 L329,258 L330,258 L331,258 L331,257 L332,257 L333,257 L333,256 L334,256 L334,255 L335,255 L335,254 L336,254 L336,253 L337,252 L337,251 L338,251 L338,250 L339,250 L339,249 L340,249 L340,248 L341,248 L342,248 L343,248 L344,248 L345,248 L346,248 L346,249 L347,249 L347,250 L348,250 L348,251 L349,251 L349,252 L350,252 L350,253 L351,253 L351,254 L352,255 L353,256 L354,257 L355,257 L355,258 L356,258 L357,258 L358,258 L359,258 L359,257 L360,257 L361,257 L361,256 L362,256 L362,255 L363,255 L363,254 L364,253 L364,252 L365,252 L365,251 L366,251 L366,250 L367,250 L367,249 L368,249 L368,248 L369,248 L370,248 L371,248 L372,248 L373,248 L374,248 L374,249 L375,249 L375,250 L376,250 L376,251 L377,251 L377,252 L378,252 L378,253 L379,253 L379,254 L380,255 L380,256 L381,256 L381,257 L382,257 L383,257 L383,258 L384,258 L385,258 L386,258 L387,258 L387,257 L388,257 L389,257 L389,256 L390,256 L390,255 L391,255 L391,254 L391,253 L392,253 L392,252 L393,252 L393,251 L394,251 L394,250 L395,250 L395,249 L396,249 L396,248 L397,248 L398,248 L399,248 L400,248 L401,248 L402,248 L402,249 L403,249 L403,250 L404,250 L404,251 L405,251 L405,252 L406,252 L406,253 L407,253 L407,254 L407,255 L408,255 L408,256 L409,256 L409,257 L410,257 L410,211 L410,210 L410,209 L410,208 L410,207 L410,206 L410,205 L410,204 L410,203 L410,202 L409,202 L409,201 L409,200 L409,199 L409,198 L408,198 L408,197 L408,196 L407,195 L407,194 L407,193 L406,193 L406,192 L406,191 L405,191 L405,190 L404,189 L404,188 L403,188 L403,187 L402,186 L402,185 L401,185 L401,184 L400,184 L400,183 L399,183 L399,182 L398,182 L398,181 L397,181 L397,180 L396,180 L396,179 L395,179 L395,178 L394,178 L394,177 L393,177 L392,177 L392,176 L391,176 L391,175 L390,175 L389,175 L389,174 L388,174 L387,174 L387,173 L386,173 L385,173 L385,172 L384,172 L383,172 L382,172 L382,171 L381,171 L380,171 L379,171 L379,170 L378,170 L377,170 L376,170 L375,170 L374,170 L374,169 L373,169 L372,169 L371,169 L370,169 L369,169 L368,169 L367,169 L366,169 L365,169 L364,169 L363,169 L363,170 L362,170 L361,170 L360,170 L359,170 L358,170 L358,171 L357,171 L356,171 L355,171 L355,172 L354,172 L353,172 L352,172 L352,173 L351,173 L350,173 L350,174 L349,174 L348,174 L348,175 L347,175 L346,176 L345,176 L345,177 L344,177 L343,178 L342,178 L342,179 L341,179 L341,180 L340,180 L340,181 L339,181 L339,182 L338,182 L338,183 L337,183 L337,184 L336,184 L336,185 L335,185 L335,186 L335,187 L334,187 L334,188 L333,188 L333,189 L333,190 L332,190 L332,191 L331,192 L331,193 L331,194 L330,194 L330,195 L330,196 L329,196 L329,197 L329,198 L329,199 L328,199 L328,200 L328,201 L328,202 L328,203 L327,203 L327,204 L327,205 L327,206 L327,207 L327,208 L327,209 L327,210 L327,211 L327,264 L327,257"/>
</g>

<g fill="#000000" fill-opacity="1" stroke="#000000" stroke-opacity="1" stroke-width="0.5" stroke-linecap="square" stroke-linejoin="bevel" transform="matrix(1,0,0,1,0,0)"
font-family="Segoe UI" font-size="9" font-weight="400" font-style="normal" 
>
<path vector-effect="none" fill-rule="evenodd" d="M374,200 L374,199 L374,198 L373,198 L373,197 L372,197 L372,196 L371,196 L371,195 L370,195 L369,195 L368,195 L367,195 L366,195 L366,196 L365,196 L365,197 L364,197 L364,198 L364,199 L363,199 L363,200 L363,201 L363,202 L364,202 L364,203 L364,204 L365,204 L365,205 L366,205 L367,205 L367,206 L368,206 L369,206 L370,206 L370,205 L371,205 L372,205 L372,204 L373,204 L373,203 L373,202 L374,202 L374,201 L374,200"/>
</g>

<g fill="#000000" fill-opacity="1" stroke="#000000" stroke-opacity="1" stroke-width="0.5" stroke-linecap="square" stroke-linejoin="bevel" transform="matrix(1,0,0,1,0,0)"
font-family="Segoe UI" font-size="9" font-weight="400" font-style="normal" 
>
<path vector-effect="none" fill-rule="evenodd" d="M396,200 L396,199 L396,198 L396,197 L395,197 L395,196 L394,196 L393,196 L393,195 L392,195 L391,195 L390,195 L389,195 L389,196 L388,196 L387,196 L387,197 L387,198 L386,198 L386,199 L386,200 L386,201 L386,202 L386,203 L387,203 L387,204 L388,204 L388,205 L389,205 L390,205 L390,206 L391,206 L392,206 L392,205 L393,205 L394,205 L394,204 L395,204 L395,203 L396,203 L396,202 L396,201 L396,200"/>
</g>

<g fill="#0000ff" fill-opacity="1" stroke="#000000" stroke-opacity="1" stroke-width="0.5" stroke-linecap="square" stroke-linejoin="bevel" transform="matrix(1,0,0,1,0,0)"
font-family="Segoe UI" font-size="9" font-weight="400" font-style="normal" 
>
<path vector-effect="none" fill-rule="evenodd" d="M433,256 L434,257 L435,257 L435,258 L436,258 L437,258 L438,258 L439,258 L439,257 L440,257 L441,257 L441,256 L442,256 L442,255 L443,255 L443,254 L444,253 L444,252 L445,252 L445,251 L446,251 L446,250 L447,250 L447,249 L448,249 L448,248 L449,248 L450,248 L451,248 L452,248 L453,248 L454,248 L454,249 L455,249 L455,250 L456,250 L456,251 L457,251 L457,252 L458,252 L458,253 L459,253 L459,254 L460,255 L460,256 L461,256 L461,257 L462,257 L463,257 L463,258 L464,258 L465,258 L466,258 L467,258 L467,257 L468,257 L469,257 L469,256 L470,256 L470,255 L471,255 L471,254 L471,253 L472,253 L472,252 L473,252 L473,251 L474,251 L474,250 L475,250 L475,249 L476,249 L476,248 L477,248 L478,248 L479,248 L480,248 L481,248 L482,248 L482,249 L483,249 L483,250 L484,250 L484,251 L485,251 L485,252 L486,252 L486,253 L487,253 L487,254 L487,255 L488,255 L488,256 L489,256 L489,257 L490,257 L491,257 L491,258 L492,258 L493,258 L494,258 L495,258 L495,257 L496,257 L497,257 L497,256 L498,256 L498,255 L499,254 L499,253 L500,253 L500,252 L501,252 L501,251 L502,251 L502,250 L503,250 L503,249 L504,249 L504,248 L505,248 L506,248 L507,248 L508,248 L509,248 L510,248 L510,249 L511,249 L511,250 L512,250 L512,251 L513,251 L513,252 L514,252 L514,253 L515,254 L515,255 L516,255 L516,256 L517,256 L517,211 L517,210 L517,209 L517,208 L517,207 L517,206 L517,205 L517,204 L516,204 L516,203 L516,202 L516,201 L516,200 L515,199 L515,198 L515,197 L514,196 L514,195 L514,194 L513,194 L513,193 L513,192 L512,192 L512,191 L512,190 L511,190 L511,189 L510,188 L510,187 L509,187 L509,186 L508,186 L508,185 L508,184 L507,184 L507,183 L506,183 L506,182 L505,182 L505,181 L504,181 L504,180 L503,180 L503,179 L502,179 L502,178 L501,178 L500,178 L500,177 L499,177 L499,176 L498,176 L497,176 L497,175 L496,175 L496,174 L495,174 L494,174 L494,173 L493,173 L492,173 L492,172 L491,172 L490,172 L489,172 L489,171 L488,171 L487,171 L486,171 L486,170 L485,170 L484,170 L483,170 L482,170 L481,170 L480,169 L479,169 L478,169 L477,169 L476,169 L475,169 L474,169 L473,169 L472,169 L471,169 L470,169 L470,170 L469,170 L468,170 L467,170 L466,170 L465,170 L465,171 L464,171 L463,171 L462,171 L461,171 L461,172 L460,172 L459,172 L459,173 L458,173 L457,173 L457,174 L456,174 L455,174 L455,175 L454,175 L453,175 L453,176 L452,176 L451,177 L450,177 L450,178 L449,178 L449,179 L448,179 L448,180 L447,180 L447,181 L446,181 L445,182 L444,183 L444,184 L443,184 L443,185 L442,185 L442,186 L441,186 L441,187 L440,188 L440,189 L439,189 L439,190 L439,191 L438,191 L438,192 L438,193 L437,193 L437,194 L437,195 L436,195 L436,196 L436,197 L436,198 L435,198 L435,199 L435,200 L435,201 L434,201 L434,202 L434,203 L434,204 L434,205 L434,206 L434,207 L433,207 L433,208 L433,209 L433,210 L433,211 L433,264 L433,256"/>
</g>

<g fill="#000000" fill-opacity="1" stroke="#000000" stroke-opacity="1" stroke-width="0.5" stroke-linecap="square" stroke-linejoin="bevel" transform="matrix(1,0,0,1,0,0)"
font-family="Segoe UI" font-size="9" font-weight="400" font-style="normal" 
>
<path vector-effect="none" fill-rule="evenodd" d="M481,200 L480,200 L480,199 L480,198 L480,197 L479,197 L479,196 L478,196 L477,196 L477,195 L476,195 L475,195 L474,195 L473,195 L473,196 L472,196 L472,197 L471,197 L471,198 L470,198 L470,199 L470,200 L470,201 L470,202 L470,203 L471,203 L471,204 L472,204 L472,205 L473,205 L474,205 L474,206 L475,206 L476,206 L477,206 L477,205 L478,205 L479,205 L479,204 L480,203 L480,202 L480,201 L481,201 L481,200"/>
</g>

<g fill="#000000" fill-opacity="1" stroke="#000000" stroke-opacity="1" stroke-width="0.5" stroke-linecap="square" stroke-linejoin="bevel" transform="matrix(1,0,0,1,0,0)"
font-family="Segoe UI" font-size="9" font-weight="400" font-style="normal" 
>
<path vector-effect="none" fill-rule="evenodd" d="M503,200 L503,199 L503,198 L502,198 L502,197 L501,197 L501,196 L500,196 L500,195 L499,195 L498,195 L497,195 L496,195 L496,196 L495,196 L494,196 L494,197 L493,197 L493,198 L493,199 L493,200 L492,200 L492,201 L493,201 L493,202 L493,203 L493,204 L494,204 L494,205 L495,205 L496,205 L496,206 L497,206 L498,206 L499,206 L499,205 L500,205 L501,205 L501,204 L502,204 L502,203 L503,203 L503,202 L503,201 L503,200"/>
</g>
</g>
</svg>
