<?xml version="1.0" encoding="UTF-8" standalone="no"?>
<svg width="211.667mm" height="141.111mm"
 xmlns="http://www.w3.org/2000/svg" xmlns:xlink="http://www.w3.org/1999/xlink"  version="1.2" baseProfile="tiny">
<defs>
</defs>
<g fill="none" stroke="black" stroke-width="1" fill-rule="evenodd" stroke-linecap="square" stroke-linejoin="bevel" >

<g fill="#000000" fill-opacity="1" stroke="#000000" stroke-opacity="1" stroke-width="1" stroke-linecap="square" stroke-linejoin="bevel" transform="matrix(1,0,0,1,0,0)"
font-family="Segoe UI" font-size="9" font-weight="400" font-style="normal" 
>
</g>

<g fill="#ffffff" fill-opacity="1" stroke="#ffffff" stroke-opacity="1" stroke-width="1" stroke-linecap="square" stroke-linejoin="bevel" transform="matrix(1,0,0,1,0,0)"
font-family="Segoe UI" font-size="9" font-weight="400" font-style="normal" 
>
<rect x="0" y="0" width="600" height="400"/>
</g>

<g fill="#000000" fill-opacity="1" stroke="#000000" stroke-opacity="1" stroke-width="1" stroke-linecap="square" stroke-linejoin="bevel" transform="matrix(1,0,0,1,0,0)"
font-family="Segoe UI" font-size="9" font-weight="400" font-style="normal" 
>
</g>

<g fill="#000000" fill-opacity="1" stroke="#000000" stroke-opacity="1" stroke-width="1" stroke-linecap="square" stroke-linejoin="bevel" transform="matrix(1,0,0,1,0,0)"
font-family="Segoe UI" font-size="9" font-weight="400" font-style="normal" 
>
</g>

<g fill="#000000" fill-opacity="1" stroke="#000000" stroke-opacity="1" stroke-width="3" stroke-linecap="square" stroke-linejoin="bevel" transform="matrix(1,0,0,1,0,0)"
font-family="Segoe UI" font-size="9" font-weight="400" font-style="normal" 
>
<polyline fill="none" vector-effect="none" points="199,269 401,269 300,95 199,269 " />
</g>

<g fill="#000000" fill-opacity="1" stroke="#000000" stroke-opacity="1" stroke-width="0.5" stroke-linecap="square" stroke-linejoin="bevel" transform="matrix(1,0,0,1,0,0)"
font-family="Segoe UI" font-size="9" font-weight="400" font-style="normal" 
>
<path vector-effect="none" fill-rule="evenodd" d="M233,153 L233,152 L233,151 L233,150 L233,149 L233,148 L232,148 L232,147 L232,146 L232,145 L232,144 L231,144 L231,143 L231,142 L231,141 L230,141 L230,140 L230,139 L230,138 L229,138 L229,137 L229,136 L228,136 L228,135 L227,135 L227,134 L227,133 L226,133 L226,132 L225,132 L225,131 L224,131 L224,130 L223,130 L223,129 L222,129 L222,128 L221,128 L221,127 L220,127 L220,126 L219,126 L219,125 L218,125 L217,125 L217,124 L216,124 L215,124 L215,123 L214,123 L213,123 L213,122 L212,122 L211,122 L211,121 L210,121 L209,121 L208,121 L208,120 L207,120 L206,120 L205,120 L204,120 L203,120 L203,119 L202,119 L201,119 L200,119 L199,119 L198,119 L197,119 L196,119 L196,120 L195,120 L194,120 L193,120 L192,120 L191,120 L190,120 L190,121 L189,121 L188,121 L187,121 L187,122 L186,122 L185,122 L185,123 L184,123 L183,123 L183,124 L182,124 L181,124 L181,125 L180,125 L180,126 L179,126 L178,126 L178,127 L177,127 L177,128 L176,128 L176,129 L175,129 L175,130 L174,130 L174,131 L173,131 L173,132 L173,133 L172,133 L172,134 L171,134 L171,135 L170,135 L170,136 L170,137 L169,137 L169,138 L169,139 L168,139 L168,140 L168,141 L168,142 L167,142 L167,143 L167,144 L167,145 L166,145 L166,146 L166,147 L166,148 L166,149 L166,150 L166,151 L166,152 L166,153 L166,154 L166,155 L166,156 L166,157 L166,158 L166,159 L166,160 L166,161 L167,161 L167,162 L167,163 L167,164 L168,164 L168,165 L168,166 L168,167 L169,167 L169,168 L169,169 L170,169 L170,170 L171,170 L171,171 L171,172 L172,172 L172,173 L173,173 L173,174 L174,175 L174,176 L175,176 L175,177 L176,177 L176,178 L177,178 L178,179 L179,179 L179,180 L180,180 L180,181 L181,181 L182,181 L182,182 L183,182 L183,183 L184,183 L185,183 L185,184 L186,184 L187,184 L188,184 L188,185 L189,185 L190,185 L191,185 L191,186 L192,186 L193,186 L194,186 L195,186 L196,186 L197,186 L198,186 L199,186 L200,186 L201,186 L202,186 L203,186 L204,186 L205,186 L206,186 L207,186 L207,185 L208,185 L209,185 L210,185 L210,184 L211,184 L212,184 L213,184 L213,183 L214,183 L215,183 L215,182 L216,182 L217,182 L217,181 L218,181 L218,180 L219,180 L220,180 L220,179 L221,179 L221,178 L222,178 L222,177 L223,177 L223,176 L224,176 L224,175 L225,175 L225,174 L226,174 L226,173 L226,172 L227,172 L227,171 L228,171 L228,170 L228,169 L229,169 L229,168 L229,167 L230,167 L230,166 L230,165 L231,165 L231,164 L231,163 L231,162 L232,162 L232,161 L232,160 L232,159 L232,158 L232,157 L233,157 L233,156 L233,155 L233,154 L233,153"/>
</g>

<g fill="#000000" fill-opacity="1" stroke="#000000" stroke-opacity="1" stroke-width="0.5" stroke-linecap="square" stroke-linejoin="bevel" transform="matrix(1,0,0,1,0,0)"
font-family="Segoe UI" font-size="9" font-weight="400" font-style="normal" 
>
<path vector-effect="none" fill-rule="evenodd" d="M434,153 L434,152 L434,151 L434,150 L434,149 L434,148 L434,147 L434,146 L434,145 L433,145 L433,144 L433,143 L433,142 L432,142 L432,141 L432,140 L432,139 L431,139 L431,138 L431,137 L430,137 L430,136 L430,135 L429,135 L429,134 L428,134 L428,133 L427,132 L427,131 L426,131 L426,130 L425,130 L425,129 L424,129 L424,128 L423,128 L423,127 L422,127 L422,126 L421,126 L420,126 L420,125 L419,125 L419,124 L418,124 L417,124 L417,123 L416,123 L415,123 L415,122 L414,122 L413,122 L413,121 L412,121 L411,121 L410,121 L410,120 L409,120 L408,120 L407,120 L406,120 L405,120 L404,120 L404,119 L403,119 L402,119 L401,119 L400,119 L399,119 L398,119 L397,119 L397,120 L396,120 L395,120 L394,120 L393,120 L392,120 L392,121 L391,121 L390,121 L389,121 L389,122 L388,122 L387,122 L387,123 L386,123 L385,123 L385,124 L384,124 L383,124 L383,125 L382,125 L381,125 L381,126 L380,126 L380,127 L379,127 L379,128 L378,128 L378,129 L377,129 L377,130 L376,130 L376,131 L375,131 L375,132 L374,132 L374,133 L373,133 L373,134 L373,135 L372,135 L372,136 L371,136 L371,137 L371,138 L370,138 L370,139 L370,140 L370,141 L369,141 L369,142 L369,143 L369,144 L368,144 L368,145 L368,146 L368,147 L368,148 L367,148 L367,149 L367,150 L367,151 L367,152 L367,153 L367,154 L367,155 L367,156 L367,157 L368,157 L368,158 L368,159 L368,160 L368,161 L368,162 L369,162 L369,163 L369,164 L369,165 L370,165 L370,166 L370,167 L371,167 L371,168 L371,169 L372,169 L372,170 L372,171 L373,171 L373,172 L374,172 L374,173 L374,174 L375,174 L375,175 L376,175 L376,176 L377,176 L377,177 L378,177 L378,178 L379,178 L379,179 L380,179 L380,180 L381,180 L382,180 L382,181 L383,181 L383,182 L384,182 L385,182 L385,183 L386,183 L387,183 L387,184 L388,184 L389,184 L390,184 L390,185 L391,185 L392,185 L393,185 L393,186 L394,186 L395,186 L396,186 L397,186 L398,186 L399,186 L400,186 L401,186 L402,186 L403,186 L404,186 L405,186 L406,186 L407,186 L408,186 L409,186 L409,185 L410,185 L411,185 L412,185 L412,184 L413,184 L414,184 L415,184 L415,183 L416,183 L417,183 L417,182 L418,182 L418,181 L419,181 L420,181 L420,180 L421,180 L421,179 L422,179 L423,178 L424,178 L424,177 L425,177 L425,176 L426,176 L426,175 L427,174 L427,173 L428,173 L428,172 L429,172 L429,171 L429,170 L430,170 L430,169 L431,169 L431,168 L431,167 L432,167 L432,166 L432,165 L432,164 L433,164 L433,163 L433,162 L433,161 L434,161 L434,160 L434,159 L434,158 L434,157 L434,156 L434,155 L434,154 L434,153"/>
</g>

<g fill="#000000" fill-opacity="1" stroke="#000000" stroke-opacity="1" stroke-width="0.5" stroke-linecap="square" stroke-linejoin="bevel" transform="matrix(1,0,0,1,0,0)"
font-family="Segoe UI" font-size="9" font-weight="400" font-style="normal" 
>
<path vector-effect="none" fill-rule="evenodd" d="M334,327 L334,326 L334,325 L333,325 L333,324 L333,323 L333,322 L333,321 L333,320 L333,319 L332,319 L332,318 L332,317 L332,316 L331,316 L331,315 L331,314 L331,313 L330,313 L330,312 L330,311 L329,311 L329,310 L329,309 L328,309 L328,308 L327,308 L327,307 L326,307 L326,306 L326,305 L325,305 L325,304 L324,304 L324,303 L323,303 L323,302 L322,302 L322,301 L321,301 L320,301 L320,300 L319,300 L319,299 L318,299 L317,299 L317,298 L316,298 L316,297 L315,297 L314,297 L313,297 L313,296 L312,296 L311,296 L311,295 L310,295 L309,295 L308,295 L307,295 L307,294 L306,294 L305,294 L304,294 L303,294 L302,294 L301,294 L300,294 L299,294 L298,294 L297,294 L296,294 L295,294 L294,294 L293,294 L293,295 L292,295 L291,295 L290,295 L289,295 L289,296 L288,296 L287,296 L287,297 L286,297 L285,297 L284,297 L284,298 L283,298 L283,299 L282,299 L281,299 L281,300 L280,300 L280,301 L279,301 L278,301 L278,302 L277,302 L277,303 L276,303 L276,304 L275,304 L275,305 L274,305 L274,306 L274,307 L273,307 L273,308 L272,308 L272,309 L271,309 L271,310 L271,311 L270,311 L270,312 L270,313 L269,313 L269,314 L269,315 L269,316 L268,316 L268,317 L268,318 L268,319 L267,319 L267,320 L267,321 L267,322 L267,323 L267,324 L267,325 L266,325 L266,326 L266,327 L266,328 L266,329 L266,330 L267,330 L267,331 L267,332 L267,333 L267,334 L267,335 L267,336 L268,336 L268,337 L268,338 L268,339 L269,339 L269,340 L269,341 L270,341 L270,342 L270,343 L271,343 L271,344 L271,345 L272,345 L272,346 L272,347 L273,347 L273,348 L274,348 L274,349 L275,349 L275,350 L276,350 L276,351 L277,351 L277,352 L278,352 L278,353 L279,353 L279,354 L280,354 L280,355 L281,355 L282,355 L282,356 L283,356 L284,356 L284,357 L285,357 L285,358 L286,358 L287,358 L288,358 L288,359 L289,359 L290,359 L291,359 L291,360 L292,360 L293,360 L294,360 L295,360 L296,360 L296,361 L297,361 L298,361 L299,361 L300,361 L301,361 L302,361 L303,361 L304,361 L304,360 L305,360 L306,360 L307,360 L308,360 L309,360 L309,359 L310,359 L311,359 L312,359 L312,358 L313,358 L314,358 L315,358 L315,357 L316,357 L316,356 L317,356 L318,356 L318,355 L319,355 L320,355 L320,354 L321,354 L321,353 L322,353 L322,352 L323,352 L323,351 L324,351 L324,350 L325,350 L325,349 L326,349 L326,348 L327,348 L327,347 L328,346 L328,345 L329,345 L329,344 L329,343 L330,343 L330,342 L330,341 L331,341 L331,340 L331,339 L332,339 L332,338 L332,337 L332,336 L333,336 L333,335 L333,334 L333,333 L333,332 L333,331 L333,330 L334,330 L334,329 L334,328 L334,327"/>
</g>

<g fill="#ffffff" fill-opacity="1" stroke="#000000" stroke-opacity="1" stroke-width="0.5" stroke-linecap="square" stroke-linejoin="bevel" transform="matrix(1,0,0,1,0,0)"
font-family="Segoe UI" font-size="9" font-weight="400" font-style="normal" 
>
<path vector-effect="none" fill-rule="evenodd" d="M199,153 L401,153 L300,327 L199,153"/>
</g>
</g>
</svg>
