<?xml version="1.0" encoding="UTF-8" standalone="no"?>
<svg width="197.556mm" height="156.986mm"
 xmlns="http://www.w3.org/2000/svg" xmlns:xlink="http://www.w3.org/1999/xlink" version="1.2" baseProfile="tiny">
<defs>
</defs>
<g fill="none" stroke="black" stroke-width="1" fill-rule="evenodd" stroke-linecap="square" stroke-linejoin="bevel" >

<g fill="#000000" fill-opacity="1" stroke="#000000" stroke-opacity="1" stroke-width="1" stroke-linecap="square" stroke-linejoin="bevel" transform="matrix(1,0,0,1,0,0)"
font-family="Segoe UI" font-size="9" font-weight="400" font-style="normal" 
>
</g>

<g fill="#ffffff" fill-opacity="1" stroke="#ffffff" stroke-opacity="1" stroke-width="1" stroke-linecap="square" stroke-linejoin="bevel" transform="matrix(1,0,0,1,0,0)"
font-family="Segoe UI" font-size="9" font-weight="400" font-style="normal" 
>
<rect x="0" y="0" width="560" height="445"/>
</g>

<g fill="#000000" fill-opacity="1" stroke="#000000" stroke-opacity="1" stroke-width="1" stroke-linecap="square" stroke-linejoin="bevel" transform="matrix(1,0,0,1,0,0)"
font-family="Segoe UI" font-size="9" font-weight="400" font-style="normal" 
>
</g>

<g fill="#000000" fill-opacity="1" stroke="#000000" stroke-opacity="1" stroke-width="1" stroke-linecap="square" stroke-linejoin="bevel" transform="matrix(1,0,0,1,0,0)"
font-family="Segoe UI" font-size="9" font-weight="400" font-style="normal" 
>
</g>

<g fill="#3d26a8" fill-opacity="1" stroke="#000000" stroke-opacity="1" stroke-width="0.5" stroke-linecap="square" stroke-linejoin="bevel" transform="matrix(1,0,0,1,0,0)"
font-family="Segoe UI" font-size="9" font-weight="400" font-style="normal" 
>
<path vector-effect="none" fill-rule="evenodd" d="M289,226 L289,111 L281,112 L273,112 L265,114 L257,116 L250,118 L242,121 L235,125 L228,129 L221,133 L215,138 L209,144 L204,149 L198,155 L194,162 L189,169 L186,176 L182,183 L180,191 L289,226"/>
</g>

<g fill="#3d26a8" fill-opacity="1" stroke="#000000" stroke-opacity="1" stroke-width="0.5" stroke-linecap="square" stroke-linejoin="bevel" transform="matrix(1,0,0,1,0,0)"
font-family="Segoe UI" font-size="9" font-weight="400" font-style="normal" 
>
</g>

<g fill="#3d26a8" fill-opacity="1" stroke="#000000" stroke-opacity="1" stroke-width="1" stroke-linecap="square" stroke-linejoin="bevel" transform="matrix(1,0,0,1,0,0)"
font-family="helvetica" font-size="11" font-weight="400" font-style="normal" 
>
</g>

<g fill="#3d26a8" fill-opacity="1" stroke="#000000" stroke-opacity="1" stroke-width="1" stroke-linecap="square" stroke-linejoin="bevel" transform="matrix(1,0,0,1,176,120)"
font-family="helvetica" font-size="11" font-weight="400" font-style="normal" 
>
<text fill="#000000" fill-opacity="1" stroke="none" xml:space="preserve" x="0" y="0" font-family="helvetica" font-size="11" font-weight="400" font-style="normal" 
 >part1</text>
</g>

<g fill="#3d26a8" fill-opacity="1" stroke="#000000" stroke-opacity="1" stroke-width="1" stroke-linecap="square" stroke-linejoin="bevel" transform="matrix(1,0,0,1,0,0)"
font-family="helvetica" font-size="11" font-weight="400" font-style="normal" 
>
</g>

<g fill="#2796eb" fill-opacity="1" stroke="#000000" stroke-opacity="1" stroke-width="0.5" stroke-linecap="square" stroke-linejoin="bevel" transform="matrix(1,0,0,1,0,0)"
font-family="helvetica" font-size="11" font-weight="400" font-style="normal" 
>
<path vector-effect="none" fill-rule="evenodd" d="M279,232 L170,196 L168,204 L166,212 L165,220 L164,228 L164,236 L165,244 L166,252 L168,259 L170,267 L173,275 L176,282 L180,289 L184,296 L188,302 L194,308 L199,314 L205,320 L212,325 L218,329 L225,333 L232,336 L240,339 L247,342 L255,344 L279,232"/>
</g>

<g fill="#2796eb" fill-opacity="1" stroke="#000000" stroke-opacity="1" stroke-width="0.5" stroke-linecap="square" stroke-linejoin="bevel" transform="matrix(1,0,0,1,0,0)"
font-family="helvetica" font-size="11" font-weight="400" font-style="normal" 
>
</g>

<g fill="#2796eb" fill-opacity="1" stroke="#000000" stroke-opacity="1" stroke-width="1" stroke-linecap="square" stroke-linejoin="bevel" transform="matrix(1,0,0,1,0,0)"
font-family="helvetica" font-size="11" font-weight="400" font-style="normal" 
>
</g>

<g fill="#2796eb" fill-opacity="1" stroke="#000000" stroke-opacity="1" stroke-width="1" stroke-linecap="square" stroke-linejoin="bevel" transform="matrix(1,0,0,1,136,300)"
font-family="helvetica" font-size="11" font-weight="400" font-style="normal" 
>
<text fill="#000000" fill-opacity="1" stroke="none" xml:space="preserve" x="0" y="0" font-family="helvetica" font-size="11" font-weight="400" font-style="normal" 
 >part2</text>
</g>

<g fill="#2796eb" fill-opacity="1" stroke="#000000" stroke-opacity="1" stroke-width="1" stroke-linecap="square" stroke-linejoin="bevel" transform="matrix(1,0,0,1,0,0)"
font-family="helvetica" font-size="11" font-weight="400" font-style="normal" 
>
</g>

<g fill="#80cb58" fill-opacity="1" stroke="#000000" stroke-opacity="1" stroke-width="0.5" stroke-linecap="square" stroke-linejoin="bevel" transform="matrix(1,0,0,1,0,0)"
font-family="helvetica" font-size="11" font-weight="400" font-style="normal" 
>
<path vector-effect="none" fill-rule="evenodd" d="M289,226 L265,338 L273,340 L281,340 L289,341 L297,340 L305,340 L313,338 L321,336 L328,334 L336,331 L343,327 L350,323 L357,319 L363,314 L369,308 L374,303 L380,297 L384,290 L389,283 L392,276 L396,269 L398,261 L401,254 L402,246 L403,238 L404,230 L404,222 L403,214 L402,206 L401,198 L398,191 L396,183 L392,176 L389,169 L384,162 L380,155 L374,149 L289,226"/>
</g>

<g fill="#80cb58" fill-opacity="1" stroke="#000000" stroke-opacity="1" stroke-width="0.5" stroke-linecap="square" stroke-linejoin="bevel" transform="matrix(1,0,0,1,0,0)"
font-family="helvetica" font-size="11" font-weight="400" font-style="normal" 
>
</g>

<g fill="#80cb58" fill-opacity="1" stroke="#000000" stroke-opacity="1" stroke-width="1" stroke-linecap="square" stroke-linejoin="bevel" transform="matrix(1,0,0,1,0,0)"
font-family="helvetica" font-size="11" font-weight="400" font-style="normal" 
>
</g>

<g fill="#80cb58" fill-opacity="1" stroke="#000000" stroke-opacity="1" stroke-width="1" stroke-linecap="square" stroke-linejoin="bevel" transform="matrix(1,0,0,1,408,300)"
font-family="helvetica" font-size="11" font-weight="400" font-style="normal" 
>
<text fill="#000000" fill-opacity="1" stroke="none" xml:space="preserve" x="0" y="0" font-family="helvetica" font-size="11" font-weight="400" font-style="normal" 
 >part3</text>
</g>

<g fill="#80cb58" fill-opacity="1" stroke="#000000" stroke-opacity="1" stroke-width="1" stroke-linecap="square" stroke-linejoin="bevel" transform="matrix(1,0,0,1,0,0)"
font-family="helvetica" font-size="11" font-weight="400" font-style="normal" 
>
</g>

<g fill="#f9fa14" fill-opacity="1" stroke="#000000" stroke-opacity="1" stroke-width="0.5" stroke-linecap="square" stroke-linejoin="bevel" transform="matrix(1,0,0,1,0,0)"
font-family="helvetica" font-size="11" font-weight="400" font-style="normal" 
>
<path vector-effect="none" fill-rule="evenodd" d="M289,226 L374,149 L369,144 L363,138 L357,133 L350,129 L343,125 L336,121 L328,118 L321,116 L313,114 L305,112 L297,112 L289,111 L289,226"/>
</g>

<g fill="#f9fa14" fill-opacity="1" stroke="#000000" stroke-opacity="1" stroke-width="0.5" stroke-linecap="square" stroke-linejoin="bevel" transform="matrix(1,0,0,1,0,0)"
font-family="helvetica" font-size="11" font-weight="400" font-style="normal" 
>
</g>

<g fill="#f9fa14" fill-opacity="1" stroke="#000000" stroke-opacity="1" stroke-width="1" stroke-linecap="square" stroke-linejoin="bevel" transform="matrix(1,0,0,1,0,0)"
font-family="helvetica" font-size="11" font-weight="400" font-style="normal" 
>
</g>

<g fill="#f9fa14" fill-opacity="1" stroke="#000000" stroke-opacity="1" stroke-width="1" stroke-linecap="square" stroke-linejoin="bevel" transform="matrix(1,0,0,1,345,106)"
font-family="helvetica" font-size="11" font-weight="400" font-style="normal" 
>
<text fill="#000000" fill-opacity="1" stroke="none" xml:space="preserve" x="0" y="0" font-family="helvetica" font-size="11" font-weight="400" font-style="normal" 
 >part4</text>
</g>

<g fill="#f9fa14" fill-opacity="1" stroke="#000000" stroke-opacity="1" stroke-width="1" stroke-linecap="square" stroke-linejoin="bevel" transform="matrix(1,0,0,1,0,0)"
font-family="helvetica" font-size="11" font-weight="400" font-style="normal" 
>
</g>

<g fill="#000000" fill-opacity="1" stroke="#000000" stroke-opacity="1" stroke-width="1.2" stroke-linecap="square" stroke-linejoin="bevel" transform="matrix(1,0,0,1,0,0)"
font-family="helvetica" font-size="11" font-weight="400" font-style="normal" 
>
</g>

<g fill="#000000" fill-opacity="1" stroke="#000000" stroke-opacity="1" stroke-width="1.2" stroke-linecap="square" stroke-linejoin="bevel" transform="matrix(1,0,0,1,0,0)"
font-family="helvetica" font-size="11" font-weight="400" font-style="normal" 
>
</g>
</g>
</svg>
