<?xml version="1.0" encoding="UTF-8" standalone="no"?>
<svg width="211.667mm" height="141.111mm"
 xmlns="http://www.w3.org/2000/svg" xmlns:xlink="http://www.w3.org/1999/xlink"  version="1.2" baseProfile="tiny">
<defs>
</defs>
<g fill="none" stroke="black" stroke-width="1" fill-rule="evenodd" stroke-linecap="square" stroke-linejoin="bevel" >

<g fill="#000000" fill-opacity="1" stroke="#000000" stroke-opacity="1" stroke-width="1" stroke-linecap="square" stroke-linejoin="bevel" transform="matrix(1,0,0,1,0,0)"
font-family="Segoe UI" font-size="9" font-weight="400" font-style="normal" 
>
</g>

<g fill="#ffffff" fill-opacity="1" stroke="#ffffff" stroke-opacity="1" stroke-width="1" stroke-linecap="square" stroke-linejoin="bevel" transform="matrix(1,0,0,1,0,0)"
font-family="Segoe UI" font-size="9" font-weight="400" font-style="normal" 
>
<rect x="0" y="0" width="600" height="400"/>
</g>

<g fill="#000000" fill-opacity="1" stroke="#000000" stroke-opacity="1" stroke-width="1" stroke-linecap="square" stroke-linejoin="bevel" transform="matrix(1,0,0,1,0,0)"
font-family="Segoe UI" font-size="9" font-weight="400" font-style="normal" 
>
</g>

<g fill="#000000" fill-opacity="1" stroke="#000000" stroke-opacity="1" stroke-width="1" stroke-linecap="square" stroke-linejoin="bevel" transform="matrix(1,0,0,1,0,0)"
font-family="Segoe UI" font-size="9" font-weight="400" font-style="normal" 
>
</g>

<g fill="#ffffff" fill-opacity="1" stroke="#ffffff" stroke-opacity="1" stroke-width="1" stroke-linecap="square" stroke-linejoin="bevel" transform="matrix(1,0,0,1,0,0)"
font-family="Segoe UI" font-size="9" font-weight="400" font-style="normal" 
>
<path vector-effect="none" fill-rule="evenodd" d="M285,362 L412,293 L315,203 L188,272 L285,362"/>
<path vector-effect="none" fill-rule="evenodd" d="M285,219 L188,129 L315,60 L412,150 L285,219"/>
<path vector-effect="none" fill-rule="evenodd" d="M285,362 L188,272 L188,129 L285,219 L285,362"/>
<path vector-effect="none" fill-rule="evenodd" d="M412,293 L412,150 L315,60 L315,203 L412,293"/>
<path vector-effect="none" fill-rule="evenodd" d="M285,362 L285,219 L412,150 L412,293 L285,362"/>
<path vector-effect="none" fill-rule="evenodd" d="M188,272 L315,203 L315,60 L188,129 L188,272"/>
</g>

<g fill="#0071bc" fill-opacity="1" stroke="#0071bc" stroke-opacity="1" stroke-width="0.5" stroke-linecap="square" stroke-linejoin="bevel" transform="matrix(1,0,0,1,0,0)"
font-family="Segoe UI" font-size="9" font-weight="400" font-style="normal" 
>
<polyline fill="none" vector-effect="none" points="251,238 255,235 260,233 264,231 269,230 273,228 278,227 283,226 288,225 293,224 298,224 303,224 308,224 313,224 318,224 323,225 327,226 332,227 337,228 341,230 345,231 349,233 353,235 357,238 360,240 363,243 366,245 369,248 371,251 374,254 375,257 377,260 378,263 379,267 380,270 380,273 380,277 380,280 379,283 378,287 377,290 375,293 373,296 371,299 369,302 366,305 363,307 360,310 356,312 353,314 349,316 345,318 340,320 336,321 331,323 327,324 322,324 317,325 312,326 307,326 302,326 297,325 292,325 287,324 282,323 277,322 273,321 268,319 263,318 259,316 255,314 251,311 247,309 243,306 240,303 237,300 234,297 231,294 229,291 226,287 225,284 223,280 222,276 221,273 220,269 220,265 220,261 220,257 221,254 222,250 223,246 225,243 227,239 229,236 231,232 234,229 237,226 240,223 244,220 247,218 251,215 255,213 260,211 264,209 269,207 273,206 278,204 283,203 288,202 293,202 298,201 303,201 308,201 313,201 318,202 323,202 327,203 332,204 337,206 341,207 345,209 349,211 353,213 357,215 360,218 363,220 366,223 369,226 371,228 374,231 375,234 377,238 378,241 379,244 380,247 380,251 380,254 380,257 379,261 378,264 377,267 375,270 373,273 371,276 369,279 366,282 363,285 360,287 356,290 353,292 349,294 345,296 340,297 336,299 331,300 327,301 322,302 317,303 312,303 307,303 302,303 297,303 292,302 287,302 282,301 277,300 273,298 268,297 263,295 259,293 255,291 251,289 247,286 243,284 240,281 237,278 234,275 231,271 229,268 226,265 225,261 223,257 222,254 221,250 220,246 220,242 220,239 220,235 221,231 222,227 223,224 225,220 227,217 229,213 231,210 234,207 237,204 240,201 244,198 247,195 251,193 255,190 260,188 264,186 269,185 273,183 278,182 283,181 288,180 293,179 298,179 303,179 308,179 313,179 318,179 323,180 327,181 332,182 337,183 341,185 345,186 349,188 353,190 357,193 360,195 363,198 366,200 369,203 371,206 374,209 375,212 377,215 378,218 379,222 380,225 380,228 380,232 380,235 379,238 378,241 377,245 375,248 373,251 371,254 369,257 366,260 363,262 360,265 356,267 353,269 349,271 345,273 340,275 336,276 331,278 327,279 322,279 317,280 312,281 307,281 302,281 297,280 292,280 287,279 282,278 277,277 273,276 268,274 263,273 259,271 255,269 251,266 247,264 243,261 240,258 237,255 234,252 231,249 229,246 226,242 225,239 223,235 222,231 221,228 220,224 220,220 220,216 220,212 221,209 222,205 223,201 225,198 227,194 229,191 231,187 234,184 237,181 240,178 244,175 247,173 251,170 255,168 260,166 264,164 269,162 273,161 278,159 283,158 288,157 293,157 298,156 303,156 308,156 313,156 318,157 323,157 327,158 332,159 337,161 341,162 345,164 349,166 353,168 357,170 360,173 363,175 366,178 369,180 371,183 374,186 375,189 377,193 378,196 379,199 380,202 380,206 380,209 380,212 379,216 378,219 377,222 375,225 373,228 371,231 369,234 366,237 363,240 360,242 356,245 353,247 349,249 345,251 340,252 336,254 331,255 327,256 322,257 317,258 312,258 307,258 302,258 297,258 292,257 287,257 282,256 277,255 273,253 268,252 263,250 259,248 255,246 251,244 247,241 243,239 240,236 237,233 234,230 231,226 229,223 226,220 225,216 223,212 222,209 221,205 220,201 220,197 220,194 220,190 221,186 222,182 223,179 225,175 227,172 229,168 231,165 234,162 237,159 240,156 244,153 247,150 251,148 255,145 260,143 264,141 269,140 273,138 278,137 283,136 288,135 293,134 298,134 303,134 308,134 313,134 318,134 323,135 327,136 332,137 337,138 341,140 345,141 349,143 353,145 357,148 360,150 363,153 366,155 369,158 371,161 374,164 375,167 377,170 378,173 379,177 380,180 380,183 380,187 380,190 379,193 378,196 377,200 375,203 373,206 371,209 369,212 366,215 363,217 360,220 356,222 353,224 349,226 345,228 340,230 336,231 331,233 327,234 322,234 317,235 312,236 307,236 302,236 297,235 292,235 287,234 282,233 277,232 273,231 268,229 263,228 259,226 255,224 251,221 247,219 243,216 240,213 237,210 234,207 231,204 229,200 226,197 225,194 223,190 222,186 221,182 220,179 220,175 220,171 220,167 221,164 222,160 223,156 225,153 227,149 229,146 231,142 234,139 237,136 240,133 244,130 247,128 251,125 " />
</g>

<g fill="#000000" fill-opacity="1" stroke="#000000" stroke-opacity="1" stroke-width="1" stroke-linecap="square" stroke-linejoin="bevel" transform="matrix(1,0,0,1,0,0)"
font-family="Segoe UI" font-size="9" font-weight="400" font-style="normal" 
>
<polyline fill="none" vector-effect="none" points="285,362 412,293 " />
</g>

<g fill="#000000" fill-opacity="1" stroke="#000000" stroke-opacity="1" stroke-width="1" stroke-linecap="square" stroke-linejoin="bevel" transform="matrix(1,0,0,1,0,0)"
font-family="Segoe UI" font-size="9" font-weight="400" font-style="normal" 
>
<polyline fill="none" vector-effect="none" points="285,362 188,272 " />
</g>

<g fill="#000000" fill-opacity="1" stroke="#000000" stroke-opacity="1" stroke-width="1" stroke-linecap="square" stroke-linejoin="bevel" transform="matrix(1,0,0,1,0,0)"
font-family="Segoe UI" font-size="9" font-weight="400" font-style="normal" 
>
<polyline fill="none" vector-effect="none" points="188,272 188,129 " />
</g>

<g fill="#000000" fill-opacity="1" stroke="#000000" stroke-opacity="1" stroke-width="1" stroke-linecap="square" stroke-linejoin="bevel" transform="matrix(1,0,0,1,0,0)"
font-family="Segoe UI" font-size="9" font-weight="400" font-style="normal" 
>
<polyline fill="none" vector-effect="none" points="285,362 285,374 " />
</g>

<g fill="#000000" fill-opacity="1" stroke="#000000" stroke-opacity="1" stroke-width="1" stroke-linecap="square" stroke-linejoin="bevel" transform="matrix(1,0,0,1,0,0)"
font-family="Segoe UI" font-size="9" font-weight="400" font-style="normal" 
>
</g>

<g fill="#000000" fill-opacity="1" stroke="#000000" stroke-opacity="1" stroke-width="1" stroke-linecap="square" stroke-linejoin="bevel" transform="matrix(1,0,0,1,0,0)"
font-family="helvetica" font-size="10" font-weight="400" font-style="normal" 
>
</g>

<g fill="#000000" fill-opacity="1" stroke="#000000" stroke-opacity="1" stroke-width="1" stroke-linecap="square" stroke-linejoin="bevel" transform="matrix(1,0,0,1,281,388)"
font-family="helvetica" font-size="10" font-weight="400" font-style="normal" 
>
<text fill="#000000" fill-opacity="1" stroke="none" xml:space="preserve" x="0" y="0" font-family="helvetica" font-size="10" font-weight="400" font-style="normal" 
 >-1</text>
</g>

<g fill="#000000" fill-opacity="1" stroke="#000000" stroke-opacity="1" stroke-width="1" stroke-linecap="square" stroke-linejoin="bevel" transform="matrix(1,0,0,1,0,0)"
font-family="helvetica" font-size="10" font-weight="400" font-style="normal" 
>
</g>

<g fill="#000000" fill-opacity="1" stroke="#000000" stroke-opacity="1" stroke-width="1" stroke-linecap="square" stroke-linejoin="bevel" transform="matrix(1,0,0,1,0,0)"
font-family="helvetica" font-size="10" font-weight="400" font-style="normal" 
>
<polyline fill="none" vector-effect="none" points="349,328 349,340 " />
</g>

<g fill="#000000" fill-opacity="1" stroke="#000000" stroke-opacity="1" stroke-width="1" stroke-linecap="square" stroke-linejoin="bevel" transform="matrix(1,0,0,1,0,0)"
font-family="helvetica" font-size="10" font-weight="400" font-style="normal" 
>
</g>

<g fill="#000000" fill-opacity="1" stroke="#000000" stroke-opacity="1" stroke-width="1" stroke-linecap="square" stroke-linejoin="bevel" transform="matrix(1,0,0,1,0,0)"
font-family="helvetica" font-size="10" font-weight="400" font-style="normal" 
>
</g>

<g fill="#000000" fill-opacity="1" stroke="#000000" stroke-opacity="1" stroke-width="1" stroke-linecap="square" stroke-linejoin="bevel" transform="matrix(1,0,0,1,345,354)"
font-family="helvetica" font-size="10" font-weight="400" font-style="normal" 
>
<text fill="#000000" fill-opacity="1" stroke="none" xml:space="preserve" x="0" y="0" font-family="helvetica" font-size="10" font-weight="400" font-style="normal" 
 >0</text>
</g>

<g fill="#000000" fill-opacity="1" stroke="#000000" stroke-opacity="1" stroke-width="1" stroke-linecap="square" stroke-linejoin="bevel" transform="matrix(1,0,0,1,0,0)"
font-family="helvetica" font-size="10" font-weight="400" font-style="normal" 
>
</g>

<g fill="#000000" fill-opacity="1" stroke="#000000" stroke-opacity="1" stroke-width="1" stroke-linecap="square" stroke-linejoin="bevel" transform="matrix(1,0,0,1,0,0)"
font-family="helvetica" font-size="10" font-weight="400" font-style="normal" 
>
<polyline fill="none" vector-effect="none" points="412,293 412,305 " />
</g>

<g fill="#000000" fill-opacity="1" stroke="#000000" stroke-opacity="1" stroke-width="1" stroke-linecap="square" stroke-linejoin="bevel" transform="matrix(1,0,0,1,0,0)"
font-family="helvetica" font-size="10" font-weight="400" font-style="normal" 
>
</g>

<g fill="#000000" fill-opacity="1" stroke="#000000" stroke-opacity="1" stroke-width="1" stroke-linecap="square" stroke-linejoin="bevel" transform="matrix(1,0,0,1,0,0)"
font-family="helvetica" font-size="10" font-weight="400" font-style="normal" 
>
</g>

<g fill="#000000" fill-opacity="1" stroke="#000000" stroke-opacity="1" stroke-width="1" stroke-linecap="square" stroke-linejoin="bevel" transform="matrix(1,0,0,1,410,319)"
font-family="helvetica" font-size="10" font-weight="400" font-style="normal" 
>
<text fill="#000000" fill-opacity="1" stroke="none" xml:space="preserve" x="0" y="0" font-family="helvetica" font-size="10" font-weight="400" font-style="normal" 
 >1</text>
</g>

<g fill="#000000" fill-opacity="1" stroke="#000000" stroke-opacity="1" stroke-width="1" stroke-linecap="square" stroke-linejoin="bevel" transform="matrix(1,0,0,1,0,0)"
font-family="helvetica" font-size="10" font-weight="400" font-style="normal" 
>
</g>

<g fill="#000000" fill-opacity="1" stroke="#000000" stroke-opacity="1" stroke-width="1" stroke-linecap="square" stroke-linejoin="bevel" transform="matrix(1,0,0,1,0,0)"
font-family="helvetica" font-size="10" font-weight="400" font-style="normal" 
>
<polyline fill="none" vector-effect="none" points="285,362 285,374 " />
</g>

<g fill="#000000" fill-opacity="1" stroke="#000000" stroke-opacity="1" stroke-width="1" stroke-linecap="square" stroke-linejoin="bevel" transform="matrix(1,0,0,1,0,0)"
font-family="helvetica" font-size="10" font-weight="400" font-style="normal" 
>
</g>

<g fill="#000000" fill-opacity="1" stroke="#000000" stroke-opacity="1" stroke-width="1" stroke-linecap="square" stroke-linejoin="bevel" transform="matrix(1,0,0,1,0,0)"
font-family="helvetica" font-size="10" font-weight="400" font-style="normal" 
>
</g>

<g fill="#000000" fill-opacity="1" stroke="#000000" stroke-opacity="1" stroke-width="1" stroke-linecap="square" stroke-linejoin="bevel" transform="matrix(1,0,0,1,281,388)"
font-family="helvetica" font-size="10" font-weight="400" font-style="normal" 
>
<text fill="#000000" fill-opacity="1" stroke="none" xml:space="preserve" x="0" y="0" font-family="helvetica" font-size="10" font-weight="400" font-style="normal" 
 >-1</text>
</g>

<g fill="#000000" fill-opacity="1" stroke="#000000" stroke-opacity="1" stroke-width="1" stroke-linecap="square" stroke-linejoin="bevel" transform="matrix(1,0,0,1,0,0)"
font-family="helvetica" font-size="10" font-weight="400" font-style="normal" 
>
</g>

<g fill="#000000" fill-opacity="1" stroke="#000000" stroke-opacity="1" stroke-width="1" stroke-linecap="square" stroke-linejoin="bevel" transform="matrix(1,0,0,1,0,0)"
font-family="helvetica" font-size="10" font-weight="400" font-style="normal" 
>
<polyline fill="none" vector-effect="none" points="237,317 237,329 " />
</g>

<g fill="#000000" fill-opacity="1" stroke="#000000" stroke-opacity="1" stroke-width="1" stroke-linecap="square" stroke-linejoin="bevel" transform="matrix(1,0,0,1,0,0)"
font-family="helvetica" font-size="10" font-weight="400" font-style="normal" 
>
</g>

<g fill="#000000" fill-opacity="1" stroke="#000000" stroke-opacity="1" stroke-width="1" stroke-linecap="square" stroke-linejoin="bevel" transform="matrix(1,0,0,1,0,0)"
font-family="helvetica" font-size="10" font-weight="400" font-style="normal" 
>
</g>

<g fill="#000000" fill-opacity="1" stroke="#000000" stroke-opacity="1" stroke-width="1" stroke-linecap="square" stroke-linejoin="bevel" transform="matrix(1,0,0,1,233,343)"
font-family="helvetica" font-size="10" font-weight="400" font-style="normal" 
>
<text fill="#000000" fill-opacity="1" stroke="none" xml:space="preserve" x="0" y="0" font-family="helvetica" font-size="10" font-weight="400" font-style="normal" 
 >0</text>
</g>

<g fill="#000000" fill-opacity="1" stroke="#000000" stroke-opacity="1" stroke-width="1" stroke-linecap="square" stroke-linejoin="bevel" transform="matrix(1,0,0,1,0,0)"
font-family="helvetica" font-size="10" font-weight="400" font-style="normal" 
>
</g>

<g fill="#000000" fill-opacity="1" stroke="#000000" stroke-opacity="1" stroke-width="1" stroke-linecap="square" stroke-linejoin="bevel" transform="matrix(1,0,0,1,0,0)"
font-family="helvetica" font-size="10" font-weight="400" font-style="normal" 
>
<polyline fill="none" vector-effect="none" points="188,272 188,284 " />
</g>

<g fill="#000000" fill-opacity="1" stroke="#000000" stroke-opacity="1" stroke-width="1" stroke-linecap="square" stroke-linejoin="bevel" transform="matrix(1,0,0,1,0,0)"
font-family="helvetica" font-size="10" font-weight="400" font-style="normal" 
>
</g>

<g fill="#000000" fill-opacity="1" stroke="#000000" stroke-opacity="1" stroke-width="1" stroke-linecap="square" stroke-linejoin="bevel" transform="matrix(1,0,0,1,0,0)"
font-family="helvetica" font-size="10" font-weight="400" font-style="normal" 
>
</g>

<g fill="#000000" fill-opacity="1" stroke="#000000" stroke-opacity="1" stroke-width="1" stroke-linecap="square" stroke-linejoin="bevel" transform="matrix(1,0,0,1,185,298)"
font-family="helvetica" font-size="10" font-weight="400" font-style="normal" 
>
<text fill="#000000" fill-opacity="1" stroke="none" xml:space="preserve" x="0" y="0" font-family="helvetica" font-size="10" font-weight="400" font-style="normal" 
 >1</text>
</g>

<g fill="#000000" fill-opacity="1" stroke="#000000" stroke-opacity="1" stroke-width="1" stroke-linecap="square" stroke-linejoin="bevel" transform="matrix(1,0,0,1,0,0)"
font-family="helvetica" font-size="10" font-weight="400" font-style="normal" 
>
</g>

<g fill="#000000" fill-opacity="1" stroke="#000000" stroke-opacity="1" stroke-width="1" stroke-linecap="square" stroke-linejoin="bevel" transform="matrix(1,0,0,1,0,0)"
font-family="helvetica" font-size="10" font-weight="400" font-style="normal" 
>
<polyline fill="none" vector-effect="none" points="188,272 179,264 " />
</g>

<g fill="#000000" fill-opacity="1" stroke="#000000" stroke-opacity="1" stroke-width="1" stroke-linecap="square" stroke-linejoin="bevel" transform="matrix(1,0,0,1,0,0)"
font-family="helvetica" font-size="10" font-weight="400" font-style="normal" 
>
</g>

<g fill="#000000" fill-opacity="1" stroke="#000000" stroke-opacity="1" stroke-width="1" stroke-linecap="square" stroke-linejoin="bevel" transform="matrix(1,0,0,1,0,0)"
font-family="helvetica" font-size="10" font-weight="400" font-style="normal" 
>
</g>

<g fill="#000000" fill-opacity="1" stroke="#000000" stroke-opacity="1" stroke-width="1" stroke-linecap="square" stroke-linejoin="bevel" transform="matrix(1,0,0,1,171,260)"
font-family="helvetica" font-size="10" font-weight="400" font-style="normal" 
>
<text fill="#000000" fill-opacity="1" stroke="none" xml:space="preserve" x="0" y="0" font-family="helvetica" font-size="10" font-weight="400" font-style="normal" 
 >0</text>
</g>

<g fill="#000000" fill-opacity="1" stroke="#000000" stroke-opacity="1" stroke-width="1" stroke-linecap="square" stroke-linejoin="bevel" transform="matrix(1,0,0,1,0,0)"
font-family="helvetica" font-size="10" font-weight="400" font-style="normal" 
>
</g>

<g fill="#000000" fill-opacity="1" stroke="#000000" stroke-opacity="1" stroke-width="1" stroke-linecap="square" stroke-linejoin="bevel" transform="matrix(1,0,0,1,0,0)"
font-family="helvetica" font-size="10" font-weight="400" font-style="normal" 
>
<polyline fill="none" vector-effect="none" points="188,236 179,228 " />
</g>

<g fill="#000000" fill-opacity="1" stroke="#000000" stroke-opacity="1" stroke-width="1" stroke-linecap="square" stroke-linejoin="bevel" transform="matrix(1,0,0,1,0,0)"
font-family="helvetica" font-size="10" font-weight="400" font-style="normal" 
>
</g>

<g fill="#000000" fill-opacity="1" stroke="#000000" stroke-opacity="1" stroke-width="1" stroke-linecap="square" stroke-linejoin="bevel" transform="matrix(1,0,0,1,0,0)"
font-family="helvetica" font-size="10" font-weight="400" font-style="normal" 
>
</g>

<g fill="#000000" fill-opacity="1" stroke="#000000" stroke-opacity="1" stroke-width="1" stroke-linecap="square" stroke-linejoin="bevel" transform="matrix(1,0,0,1,164,224)"
font-family="helvetica" font-size="10" font-weight="400" font-style="normal" 
>
<text fill="#000000" fill-opacity="1" stroke="none" xml:space="preserve" x="0" y="0" font-family="helvetica" font-size="10" font-weight="400" font-style="normal" 
 >10</text>
</g>

<g fill="#000000" fill-opacity="1" stroke="#000000" stroke-opacity="1" stroke-width="1" stroke-linecap="square" stroke-linejoin="bevel" transform="matrix(1,0,0,1,0,0)"
font-family="helvetica" font-size="10" font-weight="400" font-style="normal" 
>
</g>

<g fill="#000000" fill-opacity="1" stroke="#000000" stroke-opacity="1" stroke-width="1" stroke-linecap="square" stroke-linejoin="bevel" transform="matrix(1,0,0,1,0,0)"
font-family="helvetica" font-size="10" font-weight="400" font-style="normal" 
>
<polyline fill="none" vector-effect="none" points="188,201 179,192 " />
</g>

<g fill="#000000" fill-opacity="1" stroke="#000000" stroke-opacity="1" stroke-width="1" stroke-linecap="square" stroke-linejoin="bevel" transform="matrix(1,0,0,1,0,0)"
font-family="helvetica" font-size="10" font-weight="400" font-style="normal" 
>
</g>

<g fill="#000000" fill-opacity="1" stroke="#000000" stroke-opacity="1" stroke-width="1" stroke-linecap="square" stroke-linejoin="bevel" transform="matrix(1,0,0,1,0,0)"
font-family="helvetica" font-size="10" font-weight="400" font-style="normal" 
>
</g>

<g fill="#000000" fill-opacity="1" stroke="#000000" stroke-opacity="1" stroke-width="1" stroke-linecap="square" stroke-linejoin="bevel" transform="matrix(1,0,0,1,164,188)"
font-family="helvetica" font-size="10" font-weight="400" font-style="normal" 
>
<text fill="#000000" fill-opacity="1" stroke="none" xml:space="preserve" x="0" y="0" font-family="helvetica" font-size="10" font-weight="400" font-style="normal" 
 >20</text>
</g>

<g fill="#000000" fill-opacity="1" stroke="#000000" stroke-opacity="1" stroke-width="1" stroke-linecap="square" stroke-linejoin="bevel" transform="matrix(1,0,0,1,0,0)"
font-family="helvetica" font-size="10" font-weight="400" font-style="normal" 
>
</g>

<g fill="#000000" fill-opacity="1" stroke="#000000" stroke-opacity="1" stroke-width="1" stroke-linecap="square" stroke-linejoin="bevel" transform="matrix(1,0,0,1,0,0)"
font-family="helvetica" font-size="10" font-weight="400" font-style="normal" 
>
<polyline fill="none" vector-effect="none" points="188,165 179,157 " />
</g>

<g fill="#000000" fill-opacity="1" stroke="#000000" stroke-opacity="1" stroke-width="1" stroke-linecap="square" stroke-linejoin="bevel" transform="matrix(1,0,0,1,0,0)"
font-family="helvetica" font-size="10" font-weight="400" font-style="normal" 
>
</g>

<g fill="#000000" fill-opacity="1" stroke="#000000" stroke-opacity="1" stroke-width="1" stroke-linecap="square" stroke-linejoin="bevel" transform="matrix(1,0,0,1,0,0)"
font-family="helvetica" font-size="10" font-weight="400" font-style="normal" 
>
</g>

<g fill="#000000" fill-opacity="1" stroke="#000000" stroke-opacity="1" stroke-width="1" stroke-linecap="square" stroke-linejoin="bevel" transform="matrix(1,0,0,1,164,152)"
font-family="helvetica" font-size="10" font-weight="400" font-style="normal" 
>
<text fill="#000000" fill-opacity="1" stroke="none" xml:space="preserve" x="0" y="0" font-family="helvetica" font-size="10" font-weight="400" font-style="normal" 
 >30</text>
</g>

<g fill="#000000" fill-opacity="1" stroke="#000000" stroke-opacity="1" stroke-width="1" stroke-linecap="square" stroke-linejoin="bevel" transform="matrix(1,0,0,1,0,0)"
font-family="helvetica" font-size="10" font-weight="400" font-style="normal" 
>
</g>

<g fill="#000000" fill-opacity="1" stroke="#000000" stroke-opacity="1" stroke-width="1" stroke-linecap="square" stroke-linejoin="bevel" transform="matrix(1,0,0,1,0,0)"
font-family="helvetica" font-size="10" font-weight="400" font-style="normal" 
>
<polyline fill="none" vector-effect="none" points="188,129 179,121 " />
</g>

<g fill="#000000" fill-opacity="1" stroke="#000000" stroke-opacity="1" stroke-width="1" stroke-linecap="square" stroke-linejoin="bevel" transform="matrix(1,0,0,1,0,0)"
font-family="helvetica" font-size="10" font-weight="400" font-style="normal" 
>
</g>

<g fill="#000000" fill-opacity="1" stroke="#000000" stroke-opacity="1" stroke-width="1" stroke-linecap="square" stroke-linejoin="bevel" transform="matrix(1,0,0,1,0,0)"
font-family="helvetica" font-size="10" font-weight="400" font-style="normal" 
>
</g>

<g fill="#000000" fill-opacity="1" stroke="#000000" stroke-opacity="1" stroke-width="1" stroke-linecap="square" stroke-linejoin="bevel" transform="matrix(1,0,0,1,164,116)"
font-family="helvetica" font-size="10" font-weight="400" font-style="normal" 
>
<text fill="#000000" fill-opacity="1" stroke="none" xml:space="preserve" x="0" y="0" font-family="helvetica" font-size="10" font-weight="400" font-style="normal" 
 >40</text>
</g>

<g fill="#000000" fill-opacity="1" stroke="#000000" stroke-opacity="1" stroke-width="1" stroke-linecap="square" stroke-linejoin="bevel" transform="matrix(1,0,0,1,0,0)"
font-family="helvetica" font-size="10" font-weight="400" font-style="normal" 
>
</g>

<g fill="#000000" fill-opacity="1" stroke="#000000" stroke-opacity="1" stroke-width="1" stroke-linecap="square" stroke-linejoin="bevel" transform="matrix(1,0,0,1,0,0)"
font-family="helvetica" font-size="10" font-weight="400" font-style="normal" 
>
</g>

<g fill="#000000" fill-opacity="1" stroke="#000000" stroke-opacity="1" stroke-width="1" stroke-linecap="square" stroke-linejoin="bevel" transform="matrix(1,0,0,1,0,0)"
font-family="helvetica" font-size="10" font-weight="400" font-style="normal" 
>
</g>
</g>
</svg>
