<?xml version="1.0" encoding="UTF-8" standalone="no"?>
<svg xmlns="http://www.w3.org/2000/svg" xmlns:xlink="http://www.w3.org/1999/xlink" width="48" height="48">
  <defs>
    <linearGradient id="c">
      <stop offset="0" stop-color="#c4a000"/>
      <stop offset="1" stop-color="#c4a000" stop-opacity="0"/>
    </linearGradient>
    <linearGradient id="h">
      <stop offset="0" stop-color="#c4a000"/>
      <stop offset="1" stop-color="#c4a000" stop-opacity="0"/>
    </linearGradient>
    <linearGradient id="d">
      <stop offset="0" stop-color="#fff"/>
      <stop offset=".5" stop-color="#fff520" stop-opacity=".89108908"/>
      <stop offset="1" stop-color="#fff300" stop-opacity="0"/>
    </linearGradient>
    <linearGradient id="f">
      <stop offset="0" stop-color="#f3f4ff"/>
      <stop offset="1" stop-color="#9193af"/>
    </linearGradient>
    <linearGradient id="b">
      <stop offset="0" stop-color="#a0a0a0"/>
      <stop offset="1" stop-color="#fff"/>
    </linearGradient>
    <linearGradient id="g">
      <stop offset="0" stop-color="#fffffd"/>
      <stop offset="1" stop-color="#cbcbc9"/>
    </linearGradient>
    <linearGradient id="i">
      <stop offset="0" stop-color="#9497b3"/>
      <stop offset="1" stop-color="#4c4059"/>
    </linearGradient>
    <linearGradient id="a">
      <stop offset="0" stop-color="#9aa29a"/>
      <stop offset="1" stop-color="#b5beb5"/>
    </linearGradient>
    <linearGradient id="e">
      <stop offset="0"/>
      <stop offset="1" stop-opacity="0"/>
    </linearGradient>
    <linearGradient xlink:href="#a" id="k" x1="8.9156475" x2="9.8855033" y1="37.197018" y2="52.090678" gradientTransform="matrix(3.12384 0 0 .9697 -31.88758 -19.59492)" gradientUnits="userSpaceOnUse"/>
    <linearGradient xlink:href="#b" id="n" x1="6.342216" x2="22.218424" y1="7.7893324" y2="25.884274" gradientUnits="userSpaceOnUse"/>
    <linearGradient xlink:href="#c" id="p" x1="19.667364" x2="20.329933" y1="4.2570662" y2="5.2845874" gradientUnits="userSpaceOnUse"/>
    <radialGradient xlink:href="#d" id="r" cx="55" cy="125" r="14.375" fx="55" fy="125" gradientUnits="userSpaceOnUse"/>
    <radialGradient xlink:href="#e" id="j" cx="31.112698" cy="19.008621" r="8.6620579" fx="31.112698" fy="19.008621" gradientUnits="userSpaceOnUse"/>
    <radialGradient xlink:href="#f" id="q" cx="11.3292" cy="10.58397" r="15.532059" fx="11.3292" fy="10.58397" gradientUnits="userSpaceOnUse"/>
    <radialGradient xlink:href="#g" id="m" cx="11.901996" cy="10.045444" r="29.292715" fx="11.901996" fy="10.045444" gradientUnits="userSpaceOnUse"/>
    <radialGradient xlink:href="#h" id="o" cx="23.375" cy="10.972863" r="3.3478092" fx="23.375" fy="10.972863" gradientTransform="matrix(3.63042 0 0 3.74207 -61.48607 -29.18618)" gradientUnits="userSpaceOnUse"/>
    <radialGradient xlink:href="#i" id="l" cx="8.7468252" cy="6.8283234" r="29.889715" fx="8.7468252" fy="6.8283234" gradientUnits="userSpaceOnUse"/>
  </defs>
  <path fill="url(#j)" fill-rule="evenodd" d="M39.774755 19.008621a8.6620579 8.6620579 0 1 1-17.324115 0 8.6620579 8.6620579 0 1 1 17.324115 0z" color="#000" overflow="visible" style="marker:none" transform="matrix(2.56316 0 0 1.2196 -55.98414 14.04144)"/>
  <path fill="url(#k)" fill-rule="evenodd" d="M18.587591 1.403729 4.226755 18.096665l1.2587167 1.243179L18.587591 1.403729z" color="#000" overflow="visible" style="marker:none"/>
  <path fill="#fefefe" fill-rule="evenodd" d="M18.467176 1.3138035 5.6605716 19.072612l1.8295269 1.615301L18.467176 1.3138035z"/>
  <path fill="url(#l)" fill-rule="evenodd" stroke="#605773" stroke-linecap="round" stroke-linejoin="round" stroke-width=".69855404" d="M31.160714 16.910715a14.910714 14.910714 0 1 1-29.8214281 0 14.910714 14.910714 0 1 1 29.8214281 0z" transform="translate(.569459 -1.654618) scale(1.43153)"/>
  <path fill="url(#m)" fill-rule="evenodd" stroke="url(#n)" stroke-linecap="round" stroke-linejoin="round" stroke-width=".71139598" d="M31.160714 16.910715a14.910714 14.910714 0 1 1-29.8214281 0 14.910714 14.910714 0 1 1 29.8214281 0z" transform="translate(4.824801 2.777556) scale(1.16384)"/>
  <path fill="url(#o)" fill-rule="evenodd" stroke="url(#p)" stroke-width=".56498736" d="M16.679382 6.6387137a8.5 8.5 0 0 1 6.653309-3.2636084L23.375 11.875z" color="#000" overflow="visible" style="marker:none" transform="translate(-17.02424 1.610741) scale(1.76995)"/>
  <path fill="#f3f3f3" fill-rule="evenodd" stroke="#000" stroke-linecap="round" stroke-linejoin="round" stroke-width=".99999759" d="M26.7047721 22.69230922a2.52682828 2.52682828 0 1 1-5.05365657 0 2.52682828 2.52682828 0 1 1 5.05365656 0z"/>
  <path fill="none" stroke="#000" stroke-linecap="round" d="m22.176614 20.718014-9.020912-7.577732"/>
  <path fill="none" stroke="#000" stroke-linecap="round" stroke-width="2" d="m19.408614 29.776506 2.960041-4.493278"/>
  <path fill="#b6b9b1" fill-rule="evenodd" d="M25.33180842 8.74302165a1.70116218 1.70116218 0 1 1-3.40232437 0 1.70116218 1.70116218 0 1 1 3.40232437 0zm0 27.21861a1.70116218 1.70116218 0 1 1-3.40232437 0 1.70116218 1.70116218 0 1 1 3.40232437 0zm-13.60931-13.60933a1.70116218 1.70116218 0 1 1-3.40232437 0 1.70116218 1.70116218 0 1 1 3.40232437 0zm27.218592 0a1.70116218 1.70116218 0 1 1-3.40232437 0 1.70116218 1.70116218 0 1 1 3.40232437 0z"/>
  <path fill="none" stroke="url(#q)" stroke-linecap="round" stroke-linejoin="round" stroke-width=".73656511" d="M31.160714 16.910715a14.910714 14.910714 0 1 1-29.8214281 0 14.910714 14.910714 0 1 1 29.8214281 0z" transform="translate(1.769896 -.493735) scale(1.35765)"/>
  <path fill="url(#r)" d="M69.375 125a14.375 14.375 0 1 1-28.75 0 14.375 14.375 0 1 1 28.75 0z" color="#000" display="block" style="marker:none" transform="translate(5.544052 -66.92818) scale(.61113)"/>
</svg>