<?xml version="1.0" encoding="UTF-8" standalone="no"?>
<svg xmlns="http://www.w3.org/2000/svg" xmlns:xlink="http://www.w3.org/1999/xlink" width="48" height="48">
  <defs>
    <radialGradient xlink:href="#a" id="k" cx="605.71429" cy="486.64789" r="117.14286" fx="605.71429" fy="486.64789" gradientTransform="matrix(-2.77439 0 0 1.9697 112.7623 -872.8854)" gradientUnits="userSpaceOnUse"/>
    <radialGradient xlink:href="#a" id="j" cx="605.71429" cy="486.64789" r="117.14286" fx="605.71429" fy="486.64789" gradientTransform="matrix(2.77439 0 0 1.9697 -1891.633 -872.8854)" gradientUnits="userSpaceOnUse"/>
    <radialGradient id="g" cx="20.8921" cy="64.5679" r="5.257" fx="20.8921" fy="64.5679" gradientUnits="userSpaceOnUse">
      <stop offset="0" stop-color="#F0F0F0"/>
      <stop offset="1" stop-color="#9a9a9a"/>
    </radialGradient>
    <radialGradient id="f" cx="20.8921" cy="114.5684" r="5.256" fx="20.8921" fy="114.5684" gradientUnits="userSpaceOnUse">
      <stop offset="0" stop-color="#F0F0F0"/>
      <stop offset="1" stop-color="#9a9a9a"/>
    </radialGradient>
    <radialGradient xlink:href="#b" id="q" cx="55" cy="125" r="14.375" fx="55" fy="125" gradientUnits="userSpaceOnUse"/>
    <radialGradient xlink:href="#c" id="m" cx="8.824419" cy="3.7561285" r="37.751713" fx="8.824419" fy="3.7561285" gradientTransform="matrix(.96827 0 0 1.03277 3.353553 .646447)" gradientUnits="userSpaceOnUse"/>
    <radialGradient xlink:href="#d" id="l" cx="33.966679" cy="35.736916" r="86.70845" fx="33.966679" fy="35.736916" gradientTransform="scale(.9605 1.04113)" gradientUnits="userSpaceOnUse"/>
    <radialGradient xlink:href="#e" id="n" cx="8.1435566" cy="7.2678967" r="38.158695" fx="8.1435566" fy="7.2678967" gradientTransform="matrix(.96827 0 0 1.03277 3.353553 .646447)" gradientUnits="userSpaceOnUse"/>
    <radialGradient xlink:href="#f" id="o" cx="20.8921" cy="114.5684" r="5.256" fx="20.8921" fy="114.5684" gradientTransform="translate(4.613529 3.979808) scale(.2297)" gradientUnits="userSpaceOnUse"/>
    <radialGradient xlink:href="#g" id="p" cx="20.8921" cy="64.5679" r="5.257" fx="20.8921" fy="64.5679" gradientTransform="translate(4.613529 3.979808) scale(.2297)" gradientUnits="userSpaceOnUse"/>
    <linearGradient id="a">
      <stop offset="0"/>
      <stop offset="1" stop-opacity="0"/>
    </linearGradient>
    <linearGradient id="h">
      <stop offset="0" stop-opacity="0"/>
      <stop offset=".5"/>
      <stop offset="1" stop-opacity="0"/>
    </linearGradient>
    <linearGradient xlink:href="#h" id="i" x1="302.85715" x2="302.85715" y1="366.64789" y2="609.50507" gradientTransform="matrix(2.77439 0 0 1.9697 -1892.179 -872.8854)" gradientUnits="userSpaceOnUse"/>
    <linearGradient id="e">
      <stop offset="0" stop-color="#fff"/>
      <stop offset="1" stop-color="#f8f8f8"/>
    </linearGradient>
    <linearGradient id="c">
      <stop offset="0" stop-color="#a3a3a3"/>
      <stop offset="1" stop-color="#4c4c4c"/>
    </linearGradient>
    <linearGradient id="d">
      <stop offset="0" stop-color="#fafafa"/>
      <stop offset="1" stop-color="#bbb"/>
    </linearGradient>
    <linearGradient id="b">
      <stop offset="0" stop-color="#fff"/>
      <stop offset=".5" stop-color="#fff520" stop-opacity=".89108908"/>
      <stop offset="1" stop-color="#fff300" stop-opacity="0"/>
    </linearGradient>
  </defs>
  <g color="#000" transform="matrix(.02165 0 0 .01486 43.0076 42.68539)">
    <path fill="url(#i)" d="M-1559.2523-150.69685h1339.6335v478.35718h-1339.6335z" opacity=".40206185" overflow="visible" style="marker:none"/>
    <path fill="url(#j)" d="M-219.61876-150.68038v478.33079c142.874166.90045 345.40022-107.16966 345.40014-239.196175 0-132.026537-159.436816-239.134595-345.40014-239.134615z" opacity=".40206185" overflow="visible" style="marker:none"/>
    <path fill="url(#k)" d="M-1559.2523-150.68038v478.33079c-142.8742.90045-345.4002-107.16966-345.4002-239.196175 0-132.026537 159.4368-239.134595 345.4002-239.134615z" opacity=".40206185" overflow="visible" style="marker:none"/>
  </g>
  <rect width="34.875" height="40.920494" x="6.6035528" y="3.6464462" fill="url(#l)" stroke="url(#m)" stroke-linecap="round" stroke-linejoin="round" color="#000" display="block" overflow="visible" ry="1.1490486" style="marker:none"/>
  <rect width="32.775887" height="38.946384" x="7.6660538" y="4.5839462" fill="none" stroke="url(#n)" stroke-linecap="round" stroke-linejoin="round" color="#000" display="block" overflow="visible" rx=".14904857" ry=".14904857" style="marker:none"/>
  <g transform="translate(.646447 -.03798933)">
    <path fill="#fff" d="M10.3484926 30.217151c0 .4531981-.36752.8204884-.8207181.8204884-.4534278 0-.8207181-.36752-.8207181-.8204884 0-.4534278.36752-.8207181.8207181-.8207181s.8207181.36752.8207181.8207181zm0-11.485c0 .4531981-.36752.8207181-.8207181.8207181-.4534278 0-.8207181-.36752-.8207181-.8207181 0-.4534278.36752-.8207181.8207181-.8207181s.8207181.36752.8207181.8207181z"/>
    <path fill="url(#o)" d="M9.9950109 29.952326c0 .453204-.3675248.820499-.8207288.820499-.4534338 0-.8207289-.367524-.8207289-.820499 0-.453434.3675248-.820729.8207289-.820729.453204 0 .8207288.367525.8207288.820729z"/>
    <path fill="url(#p)" d="M9.9950109 18.467176c0 .453204-.3675248.820729-.8207288.820729-.4534338 0-.8207289-.367525-.8207289-.820729 0-.453434.3675248-.820729.8207289-.820729.453204 0 .8207288.367525.8207288.820729z"/>
  </g>
  <path fill="none" stroke="#000" stroke-opacity=".01754385" stroke-width=".98855311" d="M11.505723 5.4942766V43.400869"/>
  <path fill="none" stroke="#fff" stroke-opacity=".20467831" d="M12.5 5.0205154V43.038228"/>
  <path fill="url(#q)" d="M69.375 125a14.375 14.375 0 1 1-28.75 0 14.375 14.375 0 1 1 28.75 0z" color="#000" display="block" style="marker:none" transform="translate(-6.340883 -86.65168) scale(.7833)"/>
</svg>