<?xml version="1.0" encoding="UTF-8"?>
<svg xmlns="http://www.w3.org/2000/svg" xmlns:xlink="http://www.w3.org/1999/xlink" width="48" height="48">
  <defs>
    <radialGradient id="m" cx="605.714" cy="486.648" r="117.143" fx="605.714" fy="486.648" gradientTransform="matrix(-2.77439 0 0 1.9697 112.762 -872.885)" gradientUnits="userSpaceOnUse" xlink:href="#a"/>
    <linearGradient id="a">
      <stop offset="0"/>
      <stop offset="1" stop-opacity="0"/>
    </linearGradient>
    <radialGradient id="l" cx="605.714" cy="486.648" r="117.143" fx="605.714" fy="486.648" gradientTransform="matrix(2.77439 0 0 1.9697 -1891.633 -872.885)" gradientUnits="userSpaceOnUse" xlink:href="#a"/>
    <linearGradient id="b">
      <stop offset="0" stop-opacity="0"/>
      <stop offset=".5"/>
      <stop offset="1" stop-opacity="0"/>
    </linearGradient>
    <linearGradient id="k" x1="302.857" x2="302.857" y1="366.648" y2="609.505" gradientTransform="matrix(2.77439 0 0 1.9697 -1892.179 -872.885)" gradientUnits="userSpaceOnUse" xlink:href="#b"/>
    <linearGradient id="i">
      <stop offset="0" stop-color="#fff"/>
      <stop offset="1" stop-color="#fff" stop-opacity="0"/>
    </linearGradient>
    <linearGradient id="h">
      <stop offset="0" stop-color="#fff" stop-opacity=".103"/>
      <stop offset="1" stop-color="#fff" stop-opacity="0"/>
    </linearGradient>
    <linearGradient id="f">
      <stop offset="0" stop-color="#b5c051"/>
      <stop offset="1" stop-color="#858e3f"/>
    </linearGradient>
    <linearGradient id="g">
      <stop offset="0" stop-color="#616c08"/>
      <stop offset="1" stop-color="#495106"/>
    </linearGradient>
    <linearGradient id="e">
      <stop offset="0" stop-color="#575955"/>
      <stop offset="1" stop-color="#7c7e79"/>
    </linearGradient>
    <linearGradient id="d">
      <stop offset="0" stop-color="#babdb6"/>
      <stop offset="1" stop-color="#f1f5ec"/>
    </linearGradient>
    <linearGradient id="j">
      <stop offset="0"/>
      <stop offset="1" stop-opacity="0"/>
    </linearGradient>
    <linearGradient id="c">
      <stop offset="0" stop-color="#eff3f4"/>
      <stop offset="1" stop-color="#939596"/>
    </linearGradient>
    <linearGradient id="s" x1="-4.638" x2="-4.524" y1="104.388" y2="110.614" gradientTransform="matrix(1.4649 0 0 .4759 30.565 -34.343)" gradientUnits="userSpaceOnUse" xlink:href="#c"/>
    <linearGradient id="u" x1="55.208" x2="60.686" y1="6.89" y2="6.89" gradientTransform="matrix(.77249 0 0 1.55784 -2.795 -.167)" gradientUnits="userSpaceOnUse" xlink:href="#d"/>
    <linearGradient id="t" x1="2.933" x2="19.738" y1="21.17" y2="21.17" gradientTransform="matrix(2.37495 0 0 .50671 -2.795 -.167)" gradientUnits="userSpaceOnUse" xlink:href="#e"/>
    <linearGradient id="n" x1="10.861" x2="30.587" y1="33.139" y2="37.721" gradientTransform="scale(1.17563 .8506)" gradientUnits="userSpaceOnUse" xlink:href="#f"/>
    <linearGradient id="o" x1="19.347" x2="19.673" y1="23.114" y2="52.625" gradientTransform="scale(1.17563 .8506)" gradientUnits="userSpaceOnUse" xlink:href="#g"/>
    <linearGradient id="q" x1="17.574" x2="25.312" y1="25.335" y2="48.805" gradientTransform="scale(1.17564 .8506)" gradientUnits="userSpaceOnUse" xlink:href="#h"/>
    <linearGradient id="r" x1="19.977" x2="19.858" y1="38.963" y2="23.601" gradientTransform="scale(1.21567 .8226)" gradientUnits="userSpaceOnUse" xlink:href="#i"/>
    <linearGradient id="p" x1="7.374" x2="7.529" y1="27.377" y2="69.461" gradientTransform="matrix(3.49502 0 0 .34432 -2.972 -.034)" gradientUnits="userSpaceOnUse" xlink:href="#j"/>
  </defs>
  <g color="#000">
    <path fill="url(#k)" d="M-1559.252 -150.697H-219.61899999999991V327.66H-1559.252z" opacity=".402" style="marker:none" transform="matrix(.02262 0 0 .01966 44.395 41.981)"/>
    <path fill="url(#l)" d="M -219.61876,-150.68038 C -219.61876,-150.68038 -219.61876,327.65041 -219.61876,327.65041 C -76.744594,328.55086 125.78146,220.48075 125.78138,88.454235 C 125.78138,-43.572302 -33.655436,-150.68036 -219.61876,-150.68038 z" opacity=".402" style="marker:none" transform="matrix(.02262 0 0 .01966 44.395 41.981)"/>
    <path fill="url(#m)" d="M -1559.2523,-150.68038 C -1559.2523,-150.68038 -1559.2523,327.65041 -1559.2523,327.65041 C -1702.1265,328.55086 -1904.6525,220.48075 -1904.6525,88.454235 C -1904.6525,-43.572302 -1745.2157,-150.68036 -1559.2523,-150.68038 z" opacity=".402" style="marker:none" transform="matrix(.02262 0 0 .01966 44.395 41.981)"/>
  </g>
  <path fill="url(#n)" fill-rule="evenodd" stroke="url(#o)" stroke-width=".996" d="M 3.836697,16.810238 C 3.792608,16.775175 5.56866,42.034206 5.569166,42.041863 C 5.73578,44.564407 7.134433,45.486354 8.699929,45.49011 C 8.75587,45.490239 38.069409,45.486863 38.693936,45.484234 C 41.330302,45.473139 41.976184,43.867694 42.149611,42.113575 C 42.163521,42.07899 43.938664,16.844824 43.952571,16.810238 C 30.580614,16.810238 17.208657,16.810238 3.836697,16.810238 z" transform="matrix(.9971 0 0 1.01116 .175 -.498)"/>
  <path fill="url(#p)" d="M 43.188383,18.930946 L 7.1998593,18.907789 C 34.314156,19.538355 39.641346,22.517229 42.946375,22.365024 L 43.188383,18.930946 z" color="#000" display="block" style="marker:none" transform="matrix(1.00727 0 0 1.01072 -.252 -.11)"/>
  <g fill="#fff" fill-opacity=".488" fill-rule="evenodd">
    <path d="M 64.131147,25.325447 L 67.928133,25.615144 L 69.396397,22.040585 L 67.659134,23.261574 C 67.659134,23.261574 66.914226,21.524169 66.378823,21.384498 C 65.843421,21.244828 63.559132,21.291385 63.559132,21.291385 C 64.285695,21.471073 64.850367,22.719512 64.859047,22.733674 C 65.085717,23.10353 65.72022,24.348057 65.72022,24.348057 L 64.131147,25.325447 z" transform="matrix(1.40218 0 0 1.43894 -66.038 -8.126)"/>
    <path fill-opacity=".31" d="M 64.600893,22.852762 L 63.344021,25.250434 L 60.760121,23.620948 C 60.760121,23.620948 61.931819,21.409503 62.855175,21.409503 C 63.786342,21.409503 64.202456,22.212137 64.600893,22.852762 z" color="#000" style="marker:none" transform="matrix(1.40218 0 0 1.43894 -66.038 -8.126)"/>
    <path d="M 66.450976,28.545542 L 64.002948,31.471279 L 66.339076,34.488059 L 66.382284,32.587938 C 66.382284,32.587938 68.103047,32.750329 68.497986,32.362789 C 68.892923,31.975249 70.535933,30.02127 70.535933,30.02127 C 70.008436,30.552239 68.647269,30.395144 68.630659,30.395314 C 68.196893,30.399717 66.480102,30.359654 66.480102,30.359654 L 66.450976,28.545542 z" transform="matrix(1.40218 0 0 1.43894 -66.038 -8.126)"/>
    <path fill-opacity=".31" d="M 68.748409,30.061355 L 67.337346,27.751062 L 70.062991,26.371707 C 70.062991,26.371707 71.358061,28.513238 70.883591,29.305365 C 70.405109,30.104193 69.502725,30.048732 68.748409,30.061355 z" color="#000" style="marker:none" transform="matrix(1.40218 0 0 1.43894 -66.038 -8.126)"/>
    <path d="M 62.170193,28.37565 L 60.961696,25.192931 L 57.437755,25.441971 L 58.884372,26.495777 C 58.884372,26.495777 57.885335,27.90621 58.024237,28.441813 C 58.163139,28.977415 58.94678,31.196407 58.94678,31.196407 C 58.749682,30.474372 59.564769,29.372969 59.572907,29.358488 C 59.785446,28.980335 60.676477,27.51233 60.676477,27.51233 L 62.170193,28.37565 z" transform="matrix(1.40218 0 0 1.43894 -66.038 -8.126)"/>
    <path fill-opacity=".31" d="M 59.752772,29.661147 L 62.45898,29.59048 L 62.294995,32.640869 C 62.294995,32.640869 59.792913,32.695178 59.343013,31.888843 C 58.889308,31.075686 59.387472,30.32123 59.752772,29.661147 z" color="#000" style="marker:none" transform="matrix(1.40218 0 0 1.43894 -66.038 -8.126)"/>
  </g>
  <path fill="url(#q)" fill-rule="evenodd" d="M 41.62473,23.651808 C 36.299359,25.986218 29.004203,28.320991 23.056218,28.370558 C 16.516233,28.425058 11.697549,31.531025 6.8162911,33.914752 C 7.010968,36.794969 7.225682,38.805946 7.4908471,42.031519 C 7.6231144,43.640472 8.1287711,43.602252 10.431218,43.602252 C 19.542668,43.602252 31.496634,43.615196 38.688801,43.615196 C 40.449339,43.615196 40.248374,42.363465 40.34348,41.164752 C 40.803877,35.361894 41.217727,29.476257 41.62473,23.651808 z" transform="matrix(.9971 0 0 1.01116 .254 -.655)"/>
  <path fill="none" stroke="url(#r)" stroke-opacity=".286" stroke-width=".996" d="M 5.2098606,19.402822 C 5.1584543,19.40269 6.0490537,32.078422 6.7566249,40.968384 C 6.9391608,43.250374 7.3101511,44.179154 8.747779,44.179154 C 20.599078,44.179154 37.441889,44.264299 38.015405,44.262223 C 40.789981,44.252176 40.738055,43.236189 40.967844,41.077514 C 41.051496,40.29168 42.504818,19.49121 42.490953,19.49121 C 32.560989,19.49121 17.47866,19.43444 5.2098606,19.402822 z" transform="matrix(.9971 0 0 1.01116 .22 -.498)"/>
  <path fill="url(#s)" fill-rule="evenodd" stroke="#4d5506" stroke-width=".975" d="M 7.538492,4.7306315 C 6.494167,4.7330003 5.620149,4.7569809 5.144078,5.7442051 C 5.061333,5.9157934 2.539129,12.879834 2.417869,13.145414 C 1.379764,15.419016 2.337109,18.283038 4.342179,18.263863 C 4.723494,18.260334 43.852401,18.281621 44.459163,18.263863 C 46.165984,18.214785 46.384401,14.898279 45.649626,13.406336 C 45.607999,13.321814 42.197827,5.6492999 42.110852,5.5134018 C 41.708578,4.9064789 40.807722,4.640488 40.138555,4.6654006 C 40.006734,4.6704304 7.668955,4.7303368 7.538492,4.7306315 z" transform="matrix(1.02148 0 0 1.02886 -.537 -.298)"/>
  <path fill="url(#t)" fill-rule="evenodd" d="M 7.72045,6.3900545 C 6.735524,6.3773223 6.671388,6.3392466 6.449677,7.0362462 C 6.398497,7.1971422 4.336482,13.531607 4.255655,13.777418 C 3.980776,14.613371 4.36948,14.833988 5.323403,14.816995 C 5.661327,14.810975 42.670159,14.816995 43.208169,14.816995 C 43.971941,14.816995 44.198501,14.565395 44.025974,13.971598 C 43.955868,13.730313 41.085266,6.9669634 41.008179,6.8465153 C 40.651639,6.3085929 40.713471,6.3101594 40.09072,6.3025755 C 39.973809,6.301151 7.836071,6.3915492 7.72045,6.3900545 z" color="#000" display="block" style="marker:none" transform="matrix(1.00559 0 0 1.02701 -.134 -.271)"/>
  <path fill="#2e3436" fill-rule="evenodd" d="M 7.191437,6.3869852 C 6.820562,6.4152986 6.642177,6.5251871 6.486944,7.0132015 C 6.435764,7.1740974 4.376014,13.499216 4.295186,13.745027 C 4.020307,14.580975 4.384957,14.805712 5.338881,14.78872 C 5.355404,14.788428 7.292214,14.788962 7.475548,14.78872 L 7.191437,6.3869852 z" color="#000" display="block" style="marker:none" transform="matrix(1.00559 0 0 1.02886 -.134 -.298)"/>
  <path fill="url(#u)" fill-rule="evenodd" d="M 40.143457,6.2999077 C 40.594213,6.3037596 40.726578,6.2947269 41.014741,6.8394315 C 41.054147,6.9139229 43.889138,13.632601 43.990928,13.878411 C 44.337098,14.825515 43.677798,14.805712 42.632092,14.833183 C 42.433434,14.83289 40.083238,14.811194 39.852358,14.81095 L 40.143457,6.2999077 z" color="#000" display="block" style="marker:none" transform="matrix(1.00559 0 0 1.02886 -.134 -.298)"/>
</svg>
