<?xml version="1.0" encoding="UTF-8" standalone="no"?>
<svg xmlns="http://www.w3.org/2000/svg" xmlns:xlink="http://www.w3.org/1999/xlink" width="48" height="48">
  <defs>
    <linearGradient id="a">
      <stop offset="0" stop-color="#8a8a8a"/>
      <stop offset="1" stop-color="#484848"/>
    </linearGradient>
    <linearGradient id="c">
      <stop offset="0" stop-color="#fff"/>
      <stop offset=".5" stop-color="#fff" stop-opacity=".21904762"/>
      <stop offset="1" stop-color="#fff"/>
    </linearGradient>
    <linearGradient id="d">
      <stop offset="0" stop-color="#fff"/>
      <stop offset="1" stop-color="#fff" stop-opacity="0"/>
    </linearGradient>
    <linearGradient id="e">
      <stop offset="0"/>
      <stop offset="1" stop-opacity="0"/>
    </linearGradient>
    <linearGradient id="g">
      <stop offset="0" stop-color="#fff"/>
      <stop offset="1" stop-color="#fff" stop-opacity=".24761905"/>
    </linearGradient>
    <linearGradient id="f">
      <stop offset="0" stop-color="#729fcf" stop-opacity=".20784314"/>
      <stop offset="1" stop-color="#729fcf" stop-opacity=".6761905"/>
    </linearGradient>
    <linearGradient id="b">
      <stop offset="0" stop-color="#7d7d7d"/>
      <stop offset=".5" stop-color="#b1b1b1"/>
      <stop offset="1" stop-color="#686868"/>
    </linearGradient>
    <linearGradient xlink:href="#a" id="j" x1="27.366341" x2="31.335964" y1="26.580296" y2="30.557772" gradientUnits="userSpaceOnUse"/>
    <linearGradient xlink:href="#b" id="k" x1="30.65625" x2="33.21875" y1="34" y2="31.0625" gradientTransform="matrix(1.3346 0 0 1.2913 -6.973842 -7.460658)" gradientUnits="userSpaceOnUse"/>
    <linearGradient xlink:href="#c" id="l" x1="18.292673" x2="17.500893" y1="13.602121" y2="25.743469" gradientUnits="userSpaceOnUse"/>
    <radialGradient xlink:href="#d" id="i" cx="24.130018" cy="37.967922" r="16.528622" fx="24.130018" fy="37.967922" gradientTransform="matrix(1 0 0 .23797 0 28.93278)" gradientUnits="userSpaceOnUse"/>
    <radialGradient xlink:href="#e" id="h" cx="24.130018" cy="37.967922" r="16.528622" fx="24.130018" fy="37.967922" gradientTransform="matrix(1 0 0 .23797 0 28.93278)" gradientUnits="userSpaceOnUse"/>
    <radialGradient xlink:href="#f" id="m" cx="18.240929" cy="21.817987" r="8.3085051" fx="18.240929" fy="21.817987" gradientUnits="userSpaceOnUse"/>
    <radialGradient xlink:href="#g" id="n" cx="15.414371" cy="13.078408" r="6.65625" fx="15.414371" fy="13.078408" gradientTransform="matrix(2.59296 0 0 2.2521 -25.05975 -18.941)" gradientUnits="userSpaceOnUse"/>
  </defs>
  <g fill-rule="evenodd" color="#000">
    <path fill="url(#h)" d="M40.65864 37.967922a16.528622 3.9332814 0 1 1-33.0572434 0 16.528622 3.9332814 0 1 1 33.0572434 0z" opacity=".17112301" overflow="visible" style="marker:none" transform="matrix(1.44643 0 0 1.51999 -10.97453 -17.75168)"/>
    <path fill="url(#i)" d="M40.65864 37.967922a16.528622 3.9332814 0 1 1-33.0572434 0 16.528622 3.9332814 0 1 1 33.0572434 0z" overflow="visible" style="marker:none" transform="matrix(.49776 0 0 .60962 8.973526 15.61929)"/>
  </g>
  <g color="#000" transform="translate(.12372323 .07535096)">
    <path fill="#dcdcdc" fill-rule="evenodd" stroke="url(#j)" stroke-linecap="round" stroke-miterlimit="10" stroke-width="2.00000095" d="M18.627569 3.1435548c-8.13913 0-14.7448008 6.6056711-14.7448008 14.7448012 0 8.13913 6.6056708 14.744802 14.7448008 14.744802 3.479555 0 6.551001-1.384393 9.073723-3.402647-.205377 1.006881-.07803 2.035368.756144 2.759925l10.964084 9.52741c1.233416 1.071329 3.087462.93096 4.15879-.302457 1.071328-1.233418.930959-3.087462-.302457-4.15879l-10.964084-9.527411c-.671527-.583279-1.492878-.755969-2.306238-.642722 1.9867-2.512422 3.364839-5.548803 3.364839-8.99811 0-8.1391301-6.605671-14.7448012-14.744801-14.7448012zm-.07562 1.2261833c7.639459 0 13.291775 4.7889505 13.291775 13.2917749 0 8.675113-5.81669 13.291775-13.291775 13.291775-7.302949 0-13.2917734-5.478092-13.2917734-13.291775 0-7.9841069 5.8246384-13.291775 13.2917734-13.2917749z" overflow="visible" style="marker:none"/>
    <path fill="#dcdcdc" fill-rule="evenodd" d="M18.602905 3.0803551c-8.16544 0-14.7924642 6.627024-14.7924642 14.7924639 0 8.16544 6.6270242 14.792464 14.7924642 14.792464 3.490803 0 6.572177-1.388867 9.103055-3.413645-.206041 1.010136-.07829 2.041947.758587 2.768846l10.999526 9.558207c1.237403 1.074792 3.097442.93397 4.172233-.303435 1.074791-1.237404.933968-3.097442-.303435-4.172233l-10.999525-9.558208c-.673698-.585164-1.497704-.758413-2.313693-.644799 1.993122-2.520544 3.375716-5.56674 3.375716-9.027197 0-8.1654399-6.627024-14.7924639-14.792464-14.7924639zm-.07586 3.1860692c6.281108 2e-7 11.378818 5.0977107 11.378818 11.3788187s-5.09771 11.378818-11.378818 11.378818c-6.281108 0-11.3788184-5.09771-11.3788184-11.378818 2e-7-6.281108 5.0977104-11.3788187 11.3788184-11.3788187z" overflow="visible" style="marker:none"/>
    <path fill="url(#k)" fill-rule="evenodd" d="M39.507004 41.57769c-.478672-2.273187 1.39733-4.811422 3.584053-4.788375L32.33069 27.531204c-2.944791-.05671-4.269502 2.272616-3.776814 4.599922l10.953128 9.446564z" overflow="visible" style="marker:none"/>
    <path fill="none" stroke="url(#l)" stroke-linecap="round" stroke-miterlimit="10" stroke-width=".8027336" d="M28.549437 18.920233a11.048544 11.048544 0 1 1-22.0970883 0 11.048544 11.048544 0 1 1 22.0970883 0z" overflow="visible" style="marker:none" transform="translate(-3.425346 -6.177033) scale(1.24574)"/>
    <rect width="19.048439" height="4.4404783" x="40.373337" y=".14086054" fill="none" stroke="#fff" stroke-linecap="round" stroke-miterlimit="10" stroke-width="1.00003111" opacity=".43315507" overflow="visible" rx="2.1366608" ry="1.8879365" style="marker:none" transform="matrix(.75299 .65804 -.6489 .76087 0 0)"/>
    <path fill="url(#m)" fill-rule="evenodd" stroke="#3063a3" stroke-linecap="round" stroke-miterlimit="10" stroke-width=".71499395" d="M25.897786 18.478292a8.3085051 8.3085051 0 1 1-16.61701 0 8.3085051 8.3085051 0 1 1 16.61701 0z" style="marker:none" transform="translate(-6.224338 -8.298958) scale(1.39861)"/>
    <path fill="url(#n)" fill-rule="evenodd" d="M18.156915 7.3966938c-5.20759 0-9.4245469 4.2169572-9.4245469 9.4245472 0 1.503975.4203072 2.887773 1.0471719 4.149903 1.25238.461613 2.582757.775683 3.994767.775683 6.170955 0 11.099282-4.861637 11.480106-10.937129-1.730964-2.0455312-4.210039-3.4130042-7.097498-3.4130042z" opacity=".83422457" overflow="visible" style="marker:none"/>
  </g>
  <path fill="#518ac4" stroke="#3465a4" stroke-width="1.00000874" d="M11.50000017 15.49999997v4.00000017h14.00000035v-4.00000017H16.5000005z"/>
  <path fill="none" stroke="#eeeeec" stroke-width="1.00000874" d="M12.50000034 16.50000014v1.99999983h12.00000001v-1.99999983h-6.99999967z" opacity=".41000001"/>
  <path fill="#eeeeec" d="M17.0000003 16.0000004h-5.0000001v2.18750004c1.64868903-.85473101 4.02958807-1.37996802 6.46116711-.70266501 1.69474803.472063 4.61880808.431675 6.53883311.140165V16.0000004h-5.00000008z" opacity=".4"/>
</svg>