<?xml version="1.0" encoding="UTF-8" standalone="no"?>
<svg width="148.167mm" height="111.125mm"
 viewBox="0 0 560 420"
 xmlns="http://www.w3.org/2000/svg" xmlns:xlink="http://www.w3.org/1999/xlink" version="1.2" baseProfile="tiny">
<defs>
</defs>
<g fill="none" stroke="black" stroke-width="1" fill-rule="evenodd" stroke-linecap="square" stroke-linejoin="bevel" >

<g fill="#000000" fill-opacity="1" stroke="#000000" stroke-opacity="1" stroke-width="1" stroke-linecap="square" stroke-linejoin="bevel" transform="matrix(1,0,0,1,0,0)"
font-family="Segoe UI" font-size="12" font-weight="400" font-style="normal" 
>
</g>

<g fill="#ffffff" fill-opacity="1" stroke="#ffffff" stroke-opacity="1" stroke-width="1" stroke-linecap="square" stroke-linejoin="bevel" transform="matrix(1,0,0,1,0,0)"
font-family="Segoe UI" font-size="12" font-weight="400" font-style="normal" 
>
<rect x="0" y="0" width="560" height="420"/>
</g>

<g fill="#000000" fill-opacity="1" stroke="#000000" stroke-opacity="1" stroke-width="1" stroke-linecap="square" stroke-linejoin="bevel" transform="matrix(1,0,0,1,0,0)"
font-family="Segoe UI" font-size="12" font-weight="400" font-style="normal" 
>
</g>

<g fill="#000000" fill-opacity="1" stroke="#000000" stroke-opacity="1" stroke-width="1" stroke-linecap="square" stroke-linejoin="bevel" transform="matrix(1,0,0,1,0,0)"
font-family="Segoe UI" font-size="12" font-weight="400" font-style="normal" 
>
</g>

<g fill="#000000" fill-opacity="1" stroke="#000000" stroke-opacity="1" stroke-width="3.2" stroke-linecap="square" stroke-linejoin="bevel" transform="matrix(1,0,0,1,0,0)"
font-family="Segoe UI" font-size="12" font-weight="400" font-style="normal" 
>
<polyline fill="none" vector-effect="none" points="191,290 387,290 289,122 191,290 " />
</g>

<g fill="#000000" fill-opacity="1" stroke="#000000" stroke-opacity="1" stroke-width="3.2" stroke-linecap="square" stroke-linejoin="bevel" transform="matrix(1,0,0,1,0,0)"
font-family="Segoe UI" font-size="12" font-weight="400" font-style="normal" 
>
</g>

<g fill="#000000" fill-opacity="1" stroke="#000000" stroke-opacity="1" stroke-width="3.2" stroke-linecap="square" stroke-linejoin="bevel" transform="matrix(1,0,0,1,0,0)"
font-family="Segoe UI" font-size="12" font-weight="400" font-style="normal" 
>
</g>

<g fill="#000000" fill-opacity="1" stroke="#000000" stroke-opacity="1" stroke-width="3.2" stroke-linecap="square" stroke-linejoin="bevel" transform="matrix(1,0,0,1,0,0)"
font-family="Segoe UI" font-size="12" font-weight="400" font-style="normal" 
>
</g>

<g fill="#000000" fill-opacity="1" stroke="#000000" stroke-opacity="1" stroke-width="3.2" stroke-linecap="square" stroke-linejoin="bevel" transform="matrix(1,0,0,1,0,0)"
font-family="Segoe UI" font-size="12" font-weight="400" font-style="normal" 
>
</g>

<g fill="#000000" fill-opacity="1" stroke="#000000" stroke-opacity="1" stroke-width="0.5" stroke-linecap="square" stroke-linejoin="bevel" transform="matrix(1,0,0,1,0,0)"
font-family="Segoe UI" font-size="12" font-weight="400" font-style="normal" 
>
<path vector-effect="none" fill-rule="evenodd" d="M224,178 L224,177 L224,176 L224,175 L224,174 L224,173 L224,172 L223,172 L223,171 L223,170 L223,169 L223,168 L222,168 L222,167 L222,166 L222,165 L221,165 L221,164 L221,163 L220,163 L220,162 L220,161 L219,161 L219,160 L218,160 L218,159 L218,158 L217,158 L217,157 L216,157 L216,156 L215,156 L215,155 L214,155 L214,154 L213,154 L213,153 L212,153 L212,152 L211,152 L210,151 L209,151 L209,150 L208,150 L207,150 L207,149 L206,149 L205,149 L205,148 L204,148 L203,148 L203,147 L202,147 L201,147 L200,147 L200,146 L199,146 L198,146 L197,146 L196,146 L195,146 L194,145 L193,145 L192,145 L191,145 L190,145 L189,145 L188,145 L188,146 L187,146 L186,146 L185,146 L184,146 L183,146 L183,147 L182,147 L181,147 L180,147 L180,148 L179,148 L178,148 L178,149 L177,149 L176,149 L176,150 L175,150 L174,150 L174,151 L173,151 L172,151 L172,152 L171,152 L171,153 L170,153 L170,154 L169,154 L169,155 L168,155 L168,156 L167,156 L167,157 L166,157 L166,158 L165,158 L165,159 L165,160 L164,160 L164,161 L163,161 L163,162 L163,163 L162,163 L162,164 L162,165 L161,165 L161,166 L161,167 L161,168 L160,168 L160,169 L160,170 L160,171 L160,172 L159,172 L159,173 L159,174 L159,175 L159,176 L159,177 L159,178 L159,179 L159,180 L159,181 L159,182 L159,183 L159,184 L160,184 L160,185 L160,186 L160,187 L160,188 L161,188 L161,189 L161,190 L162,190 L162,191 L162,192 L162,193 L163,193 L163,194 L164,194 L164,195 L164,196 L165,196 L165,197 L166,197 L166,198 L166,199 L167,199 L167,200 L168,200 L168,201 L169,201 L169,202 L170,202 L170,203 L171,203 L172,203 L172,204 L173,204 L173,205 L174,205 L175,205 L175,206 L176,206 L176,207 L177,207 L178,207 L178,208 L179,208 L180,208 L181,208 L181,209 L182,209 L183,209 L184,209 L185,209 L185,210 L186,210 L187,210 L188,210 L189,210 L190,210 L191,210 L192,210 L193,210 L194,210 L195,210 L196,210 L197,210 L198,210 L198,209 L199,209 L200,209 L201,209 L202,209 L202,208 L203,208 L204,208 L205,208 L205,207 L206,207 L207,207 L207,206 L208,206 L208,205 L209,205 L210,205 L210,204 L211,204 L211,203 L212,203 L213,203 L213,202 L214,202 L214,201 L215,201 L215,200 L216,200 L216,199 L217,198 L217,197 L218,197 L218,196 L219,196 L219,195 L219,194 L220,194 L220,193 L220,192 L221,192 L221,191 L221,190 L222,190 L222,189 L222,188 L222,187 L223,187 L223,186 L223,185 L223,184 L223,183 L224,183 L224,182 L224,181 L224,180 L224,179 L224,178"/>
<path vector-effect="none" fill-rule="evenodd" d="M419,178 L419,177 L419,176 L419,175 L419,174 L419,173 L419,172 L418,172 L418,171 L418,170 L418,169 L418,168 L417,168 L417,167 L417,166 L417,165 L416,165 L416,164 L416,163 L415,163 L415,162 L415,161 L414,161 L414,160 L413,160 L413,159 L413,158 L412,158 L412,157 L411,157 L411,156 L410,156 L410,155 L409,155 L409,154 L408,154 L408,153 L407,153 L407,152 L406,152 L406,151 L405,151 L404,151 L404,150 L403,150 L402,150 L402,149 L401,149 L400,149 L400,148 L399,148 L398,148 L398,147 L397,147 L396,147 L395,147 L395,146 L394,146 L393,146 L392,146 L391,146 L390,146 L390,145 L389,145 L388,145 L387,145 L386,145 L385,145 L384,145 L384,146 L383,146 L382,146 L381,146 L380,146 L379,146 L378,146 L378,147 L377,147 L376,147 L375,147 L375,148 L374,148 L373,148 L373,149 L372,149 L371,149 L371,150 L370,150 L369,150 L369,151 L368,151 L367,152 L366,152 L366,153 L365,153 L365,154 L364,154 L364,155 L363,155 L363,156 L362,156 L362,157 L361,157 L361,158 L360,158 L360,159 L360,160 L359,160 L359,161 L358,161 L358,162 L358,163 L357,163 L357,164 L357,165 L356,165 L356,166 L356,167 L356,168 L355,168 L355,169 L355,170 L355,171 L355,172 L354,172 L354,173 L354,174 L354,175 L354,176 L354,177 L354,178 L354,179 L354,180 L354,181 L354,182 L354,183 L355,183 L355,184 L355,185 L355,186 L355,187 L356,187 L356,188 L356,189 L356,190 L357,190 L357,191 L357,192 L358,192 L358,193 L358,194 L359,194 L359,195 L359,196 L360,196 L360,197 L361,197 L361,198 L362,199 L362,200 L363,200 L363,201 L364,201 L364,202 L365,202 L365,203 L366,203 L367,203 L367,204 L368,204 L368,205 L369,205 L370,205 L370,206 L371,206 L371,207 L372,207 L373,207 L373,208 L374,208 L375,208 L376,208 L376,209 L377,209 L378,209 L379,209 L380,209 L380,210 L381,210 L382,210 L383,210 L384,210 L385,210 L386,210 L387,210 L388,210 L389,210 L390,210 L391,210 L392,210 L393,210 L393,209 L394,209 L395,209 L396,209 L397,209 L397,208 L398,208 L399,208 L400,208 L400,207 L401,207 L402,207 L402,206 L403,206 L403,205 L404,205 L405,205 L405,204 L406,204 L406,203 L407,203 L408,203 L408,202 L409,202 L409,201 L410,201 L410,200 L411,200 L411,199 L412,199 L412,198 L412,197 L413,197 L413,196 L414,196 L414,195 L414,194 L415,194 L415,193 L416,193 L416,192 L416,191 L416,190 L417,190 L417,189 L417,188 L418,188 L418,187 L418,186 L418,185 L418,184 L419,184 L419,183 L419,182 L419,181 L419,180 L419,179 L419,178"/>
<path vector-effect="none" fill-rule="evenodd" d="M322,346 L321,346 L321,345 L321,344 L321,343 L321,342 L321,341 L321,340 L321,339 L321,338 L320,338 L320,337 L320,336 L320,335 L319,335 L319,334 L319,333 L318,333 L318,332 L318,331 L317,331 L317,330 L317,329 L316,329 L316,328 L315,328 L315,327 L315,326 L314,326 L314,325 L313,325 L313,324 L312,324 L312,323 L311,323 L311,322 L310,322 L310,321 L309,321 L309,320 L308,320 L307,320 L307,319 L306,319 L306,318 L305,318 L304,318 L304,317 L303,317 L302,317 L302,316 L301,316 L300,316 L299,316 L299,315 L298,315 L297,315 L296,315 L295,315 L295,314 L294,314 L293,314 L292,314 L291,314 L290,314 L289,314 L288,314 L287,314 L286,314 L285,314 L284,314 L283,314 L283,315 L282,315 L281,315 L280,315 L279,315 L279,316 L278,316 L277,316 L276,316 L276,317 L275,317 L274,317 L274,318 L273,318 L272,318 L272,319 L271,319 L271,320 L270,320 L269,320 L269,321 L268,321 L268,322 L267,322 L267,323 L266,323 L266,324 L265,324 L265,325 L264,325 L264,326 L263,326 L263,327 L263,328 L262,328 L262,329 L261,329 L261,330 L261,331 L260,331 L260,332 L260,333 L259,333 L259,334 L259,335 L258,335 L258,336 L258,337 L258,338 L257,338 L257,339 L257,340 L257,341 L257,342 L257,343 L257,344 L257,345 L257,346 L256,346 L256,347 L257,347 L257,348 L257,349 L257,350 L257,351 L257,352 L257,353 L257,354 L258,354 L258,355 L258,356 L258,357 L258,358 L259,358 L259,359 L259,360 L260,360 L260,361 L260,362 L261,362 L261,363 L261,364 L262,364 L262,365 L263,365 L263,366 L264,367 L264,368 L265,368 L265,369 L266,369 L266,370 L267,370 L267,371 L268,371 L268,372 L269,372 L270,372 L270,373 L271,373 L271,374 L272,374 L273,374 L273,375 L274,375 L275,375 L275,376 L276,376 L277,376 L277,377 L278,377 L279,377 L280,377 L280,378 L281,378 L282,378 L283,378 L284,378 L284,379 L285,379 L286,379 L287,379 L288,379 L289,379 L290,379 L291,379 L292,379 L293,379 L294,379 L294,378 L295,378 L296,378 L297,378 L298,378 L298,377 L299,377 L300,377 L301,377 L301,376 L302,376 L303,376 L303,375 L304,375 L305,375 L305,374 L306,374 L307,374 L307,373 L308,373 L308,372 L309,372 L310,372 L310,371 L311,371 L311,370 L312,370 L312,369 L313,369 L313,368 L314,368 L314,367 L315,366 L315,365 L316,365 L316,364 L317,364 L317,363 L317,362 L318,362 L318,361 L318,360 L319,360 L319,359 L319,358 L320,358 L320,357 L320,356 L320,355 L320,354 L321,354 L321,353 L321,352 L321,351 L321,350 L321,349 L321,348 L321,347 L322,347 L322,346"/>
</g>

<g fill="#ffffff" fill-opacity="1" stroke="#ffffff" stroke-opacity="1" stroke-width="0.5" stroke-linecap="square" stroke-linejoin="bevel" transform="matrix(1,0,0,1,0,0)"
font-family="Segoe UI" font-size="12" font-weight="400" font-style="normal" 
>
<path vector-effect="none" fill-rule="evenodd" d="M191,178 L387,178 L289,346 L191,178"/>
</g>

<g fill="#000000" fill-opacity="1" stroke="#000000" stroke-opacity="1" stroke-width="1.2" stroke-linecap="square" stroke-linejoin="bevel" transform="matrix(1,0,0,1,0,0)"
font-family="Segoe UI" font-size="12" font-weight="400" font-style="normal" 
>
</g>

<g fill="#000000" fill-opacity="1" stroke="#000000" stroke-opacity="1" stroke-width="1.2" stroke-linecap="square" stroke-linejoin="bevel" transform="matrix(1,0,0,1,0,0)"
font-family="Segoe UI" font-size="12" font-weight="400" font-style="normal" 
>
</g>
</g>
</svg>
