<?xml version="1.0" encoding="UTF-8" standalone="no"?>
<svg width="148.167mm" height="111.125mm"
 viewBox="0 0 560 420"
 xmlns="http://www.w3.org/2000/svg" xmlns:xlink="http://www.w3.org/1999/xlink" version="1.2" baseProfile="tiny">
<defs>
</defs>
<g fill="none" stroke="black" stroke-width="1" fill-rule="evenodd" stroke-linecap="square" stroke-linejoin="bevel" >

<g fill="#000000" fill-opacity="1" stroke="#000000" stroke-opacity="1" stroke-width="1" stroke-linecap="square" stroke-linejoin="bevel" transform="matrix(1,0,0,1,0,0)"
font-family="Segoe UI" font-size="12" font-weight="400" font-style="normal" 
>
</g>

<g fill="#ffffff" fill-opacity="1" stroke="#ffffff" stroke-opacity="1" stroke-width="1" stroke-linecap="square" stroke-linejoin="bevel" transform="matrix(1,0,0,1,0,0)"
font-family="Segoe UI" font-size="12" font-weight="400" font-style="normal" 
>
<rect x="0" y="0" width="560" height="420"/>
</g>

<g fill="#000000" fill-opacity="1" stroke="#000000" stroke-opacity="1" stroke-width="1" stroke-linecap="square" stroke-linejoin="bevel" transform="matrix(1,0,0,1,0,0)"
font-family="Segoe UI" font-size="12" font-weight="400" font-style="normal" 
>
</g>

<g fill="#000000" fill-opacity="1" stroke="#000000" stroke-opacity="1" stroke-width="1" stroke-linecap="square" stroke-linejoin="bevel" transform="matrix(1,0,0,1,0,0)"
font-family="Segoe UI" font-size="12" font-weight="400" font-style="normal" 
>
</g>

<g fill="#ffff00" fill-opacity="1" stroke="#000000" stroke-opacity="1" stroke-width="0.5" stroke-linecap="square" stroke-linejoin="bevel" transform="matrix(1,0,0,1,0,0)"
font-family="Segoe UI" font-size="12" font-weight="400" font-style="normal" 
>
<path vector-effect="none" fill-rule="evenodd" d="M154,200 L154,199 L153,199 L153,198 L152,198 L152,197 L151,197 L150,196 L149,196 L149,195 L148,195 L148,194 L147,194 L146,194 L146,193 L145,193 L144,192 L143,192 L143,191 L142,191 L141,191 L141,190 L140,190 L139,190 L138,189 L137,189 L136,189 L136,188 L135,188 L134,188 L133,188 L133,187 L132,187 L131,187 L130,187 L129,187 L128,187 L128,186 L127,186 L126,186 L125,186 L124,186 L123,186 L122,186 L121,186 L120,186 L119,186 L118,186 L117,186 L116,186 L115,186 L114,186 L113,186 L112,187 L111,187 L110,187 L109,187 L108,187 L107,188 L106,188 L105,188 L104,189 L103,189 L102,189 L102,190 L101,190 L100,190 L99,191 L98,191 L97,192 L96,192 L96,193 L95,193 L94,193 L94,194 L93,194 L92,195 L91,196 L90,196 L90,197 L89,197 L89,198 L88,198 L87,199 L86,200 L86,201 L85,201 L85,202 L84,202 L84,203 L83,203 L83,204 L82,204 L82,205 L81,205 L81,206 L81,207 L80,207 L80,208 L79,209 L79,210 L78,210 L78,211 L77,212 L77,213 L77,214 L76,214 L76,215 L76,216 L75,216 L75,217 L75,218 L74,219 L74,220 L74,221 L74,222 L73,222 L73,223 L73,224 L73,225 L73,226 L73,227 L72,227 L72,228 L72,229 L72,230 L72,231 L72,232 L72,233 L72,234 L72,235 L72,236 L72,237 L72,238 L72,239 L72,240 L72,241 L73,241 L73,242 L73,243 L73,244 L73,245 L73,246 L74,246 L74,247 L74,248 L74,249 L75,250 L75,251 L75,252 L76,252 L76,253 L76,254 L77,254 L77,255 L77,256 L78,257 L78,258 L79,258 L79,259 L80,260 L80,261 L81,261 L81,262 L81,263 L82,263 L82,264 L83,264 L83,265 L84,265 L84,266 L85,266 L85,267 L86,267 L86,268 L87,269 L88,270 L89,270 L89,271 L90,271 L90,272 L91,272 L92,273 L93,274 L94,274 L94,275 L95,275 L96,275 L96,276 L97,276 L98,277 L99,277 L100,278 L101,278 L102,278 L102,279 L103,279 L104,279 L105,280 L106,280 L107,280 L108,281 L109,281 L110,281 L111,281 L112,281 L113,282 L114,282 L115,282 L116,282 L117,282 L118,282 L119,282 L120,282 L121,282 L122,282 L123,282 L124,282 L125,282 L126,282 L127,282 L128,282 L128,281 L129,281 L130,281 L131,281 L132,281 L133,281 L133,280 L134,280 L135,280 L136,280 L136,279 L137,279 L138,279 L139,278 L140,278 L141,278 L141,277 L142,277 L143,277 L143,276 L144,276 L145,275 L146,275 L146,274 L147,274 L148,274 L148,273 L149,273 L149,272 L150,272 L151,271 L152,271 L152,270 L153,270 L153,269 L154,269 L154,268 L155,268 L155,267 L156,267 L156,266 L157,266 L157,265 L158,264 L158,263 L159,263 L159,262 L160,262 L160,261 L161,260 L120,234 L154,200"/>
</g>

<g fill="#ff0000" fill-opacity="1" stroke="#000000" stroke-opacity="1" stroke-width="0.5" stroke-linecap="square" stroke-linejoin="bevel" transform="matrix(1,0,0,1,0,0)"
font-family="Segoe UI" font-size="12" font-weight="400" font-style="normal" 
>
<path vector-effect="none" fill-rule="evenodd" d="M217,276 L217,277 L218,277 L219,277 L219,276 L220,276 L221,276 L221,275 L222,275 L222,274 L223,274 L223,273 L224,272 L224,271 L225,271 L225,270 L226,270 L226,269 L227,269 L227,268 L228,268 L229,267 L230,267 L231,267 L232,267 L232,268 L233,268 L234,268 L234,269 L235,269 L235,270 L236,270 L236,271 L237,272 L237,273 L238,273 L238,274 L239,274 L239,275 L240,275 L240,276 L241,276 L242,276 L242,277 L243,277 L244,277 L244,276 L245,276 L246,276 L246,275 L247,275 L247,274 L248,274 L248,273 L249,273 L249,272 L250,272 L250,271 L251,270 L251,269 L252,269 L252,268 L253,268 L254,268 L254,267 L255,267 L256,267 L257,267 L258,267 L258,268 L259,268 L259,269 L260,269 L260,270 L261,270 L261,271 L262,271 L262,272 L263,273 L264,274 L264,275 L265,275 L266,276 L267,276 L268,277 L269,277 L269,276 L270,276 L271,276 L271,275 L272,275 L272,274 L273,274 L273,273 L274,273 L274,272 L275,272 L275,271 L276,271 L276,270 L277,270 L277,269 L278,269 L278,268 L279,268 L279,267 L280,267 L281,267 L282,267 L283,267 L283,268 L284,268 L284,269 L285,269 L285,270 L286,270 L286,271 L287,271 L287,272 L288,272 L288,273 L289,273 L289,274 L290,274 L290,275 L291,275 L291,276 L292,276 L292,234 L292,233 L292,232 L292,231 L292,230 L292,229 L292,228 L292,227 L292,226 L291,226 L291,225 L291,224 L291,223 L291,222 L290,222 L290,221 L290,220 L289,219 L289,218 L289,217 L288,217 L288,216 L288,215 L287,215 L287,214 L286,214 L286,213 L286,212 L285,212 L285,211 L284,211 L284,210 L283,210 L283,209 L282,208 L281,207 L281,206 L280,206 L279,205 L278,205 L278,204 L277,204 L277,203 L276,203 L275,203 L275,202 L274,202 L274,201 L273,201 L272,201 L272,200 L271,200 L270,200 L270,199 L269,199 L268,199 L267,198 L266,198 L265,198 L264,198 L264,197 L263,197 L262,197 L261,197 L260,197 L259,197 L259,196 L258,196 L257,196 L256,196 L255,196 L254,196 L253,196 L252,196 L251,196 L250,196 L250,197 L249,197 L248,197 L247,197 L246,197 L245,197 L245,198 L244,198 L243,198 L242,198 L241,199 L240,199 L239,199 L239,200 L238,200 L237,200 L237,201 L236,201 L235,201 L235,202 L234,202 L233,203 L232,203 L232,204 L231,204 L231,205 L230,205 L230,206 L229,206 L228,207 L228,208 L227,208 L226,209 L226,210 L225,210 L225,211 L224,211 L224,212 L223,212 L223,213 L223,214 L222,214 L222,215 L221,216 L221,217 L220,218 L220,219 L220,220 L219,220 L219,221 L219,222 L218,222 L218,223 L218,224 L218,225 L218,226 L217,226 L217,227 L217,228 L217,229 L217,230 L217,231 L217,232 L217,233 L217,234 L217,282 L217,276"/>
</g>

<g fill="#000000" fill-opacity="1" stroke="#ffffff" stroke-opacity="1" stroke-width="3.14159" stroke-linecap="square" stroke-linejoin="bevel" transform="matrix(1,0,0,1,0,0)"
font-family="Segoe UI" font-size="12" font-weight="400" font-style="normal" 
>
<path vector-effect="none" fill-rule="evenodd" d="M259,224 L259,223 L259,222 L258,222 L258,221 L257,221 L257,220 L256,220 L255,220 L254,220 L253,220 L252,220 L252,221 L251,221 L251,222 L250,222 L250,223 L250,224 L250,225 L250,226 L250,227 L251,227 L251,228 L252,228 L252,229 L253,229 L254,229 L255,229 L256,229 L257,229 L257,228 L258,228 L258,227 L259,227 L259,226 L259,225 L259,224"/>
<path vector-effect="none" fill-rule="evenodd" d="M280,224 L280,223 L279,223 L279,222 L279,221 L278,221 L278,220 L277,220 L276,220 L275,220 L274,220 L273,220 L272,220 L272,221 L271,221 L271,222 L270,222 L270,223 L270,224 L270,225 L270,226 L271,226 L271,227 L271,228 L272,228 L272,229 L273,229 L274,229 L275,229 L276,229 L277,229 L277,228 L278,228 L279,228 L279,227 L279,226 L280,226 L280,225 L280,224"/>
</g>

<g fill="#00ff00" fill-opacity="1" stroke="#000000" stroke-opacity="1" stroke-width="0.5" stroke-linecap="square" stroke-linejoin="bevel" transform="matrix(1,0,0,1,0,0)"
font-family="Segoe UI" font-size="12" font-weight="400" font-style="normal" 
>
<path vector-effect="none" fill-rule="evenodd" d="M313,276 L314,276 L315,277 L316,277 L316,276 L317,276 L318,276 L318,275 L319,275 L319,274 L320,274 L320,273 L321,273 L321,272 L322,272 L322,271 L323,271 L323,270 L324,270 L324,269 L325,269 L325,268 L326,268 L326,267 L327,267 L328,267 L329,267 L330,267 L330,268 L331,268 L331,269 L332,269 L332,270 L333,270 L333,271 L334,271 L334,272 L335,272 L335,273 L336,273 L336,274 L337,274 L337,275 L338,275 L338,276 L339,276 L340,276 L340,277 L341,277 L342,276 L343,276 L343,275 L344,275 L345,274 L346,273 L346,272 L347,272 L347,271 L348,271 L348,270 L349,270 L349,269 L350,269 L350,268 L351,268 L351,267 L352,267 L353,267 L354,267 L355,267 L355,268 L356,268 L357,268 L357,269 L358,270 L359,271 L359,272 L360,272 L360,273 L361,273 L361,274 L362,274 L362,275 L363,275 L363,276 L364,276 L365,276 L365,277 L366,277 L367,277 L367,276 L368,276 L369,276 L369,275 L370,275 L370,274 L371,274 L371,273 L372,273 L372,272 L373,271 L373,270 L374,270 L374,269 L375,269 L375,268 L376,268 L377,268 L377,267 L378,267 L379,267 L380,267 L381,268 L382,268 L382,269 L383,269 L383,270 L384,270 L384,271 L385,272 L385,273 L386,273 L386,274 L387,274 L387,275 L388,275 L388,276 L389,276 L389,234 L389,233 L389,232 L389,231 L389,230 L389,229 L388,229 L388,228 L388,227 L388,226 L388,225 L388,224 L387,224 L387,223 L387,222 L387,221 L386,221 L386,220 L386,219 L385,218 L385,217 L384,216 L384,215 L383,215 L383,214 L383,213 L382,213 L382,212 L381,212 L381,211 L381,210 L380,210 L380,209 L379,209 L379,208 L378,208 L378,207 L377,207 L377,206 L376,206 L376,205 L375,205 L375,204 L374,204 L373,204 L373,203 L372,203 L372,202 L371,202 L370,202 L370,201 L369,201 L369,200 L368,200 L367,200 L366,199 L365,199 L364,199 L364,198 L363,198 L362,198 L361,198 L361,197 L360,197 L359,197 L358,197 L357,197 L356,197 L356,196 L355,196 L354,196 L353,196 L352,196 L351,196 L350,196 L349,196 L348,196 L347,196 L346,196 L346,197 L345,197 L344,197 L343,197 L342,197 L341,197 L341,198 L340,198 L339,198 L338,198 L338,199 L337,199 L336,199 L335,200 L334,200 L333,201 L332,201 L332,202 L331,202 L330,202 L330,203 L329,203 L329,204 L328,204 L327,204 L327,205 L326,205 L326,206 L325,206 L325,207 L324,207 L324,208 L323,208 L323,209 L322,209 L322,210 L321,210 L321,211 L321,212 L320,212 L320,213 L319,213 L319,214 L319,215 L318,215 L318,216 L317,216 L317,217 L317,218 L316,219 L316,220 L316,221 L315,221 L315,222 L315,223 L315,224 L314,224 L314,225 L314,226 L314,227 L314,228 L313,229 L313,230 L313,231 L313,232 L313,233 L313,234 L313,282 L313,276"/>
</g>

<g fill="#000000" fill-opacity="1" stroke="#ffffff" stroke-opacity="1" stroke-width="3.14159" stroke-linecap="square" stroke-linejoin="bevel" transform="matrix(1,0,0,1,0,0)"
font-family="Segoe UI" font-size="12" font-weight="400" font-style="normal" 
>
<path vector-effect="none" fill-rule="evenodd" d="M356,224 L356,223 L355,223 L355,222 L355,221 L354,221 L354,220 L353,220 L352,220 L351,220 L350,220 L349,220 L348,220 L348,221 L347,221 L347,222 L347,223 L346,223 L346,224 L346,225 L346,226 L347,226 L347,227 L347,228 L348,228 L349,229 L350,229 L351,229 L352,229 L353,229 L353,228 L354,228 L355,228 L355,227 L355,226 L356,226 L356,225 L356,224"/>
<path vector-effect="none" fill-rule="evenodd" d="M376,224 L376,223 L376,222 L375,222 L375,221 L374,221 L374,220 L373,220 L372,220 L371,220 L370,220 L369,220 L369,221 L368,221 L367,222 L367,223 L367,224 L367,225 L367,226 L367,227 L368,227 L368,228 L369,228 L369,229 L370,229 L371,229 L372,229 L373,229 L374,229 L374,228 L375,228 L375,227 L376,227 L376,226 L376,225 L376,224"/>
</g>

<g fill="#0000ff" fill-opacity="1" stroke="#000000" stroke-opacity="1" stroke-width="0.5" stroke-linecap="square" stroke-linejoin="bevel" transform="matrix(1,0,0,1,0,0)"
font-family="Segoe UI" font-size="12" font-weight="400" font-style="normal" 
>
<path vector-effect="none" fill-rule="evenodd" d="M410,275 L410,276 L411,276 L412,276 L412,277 L413,277 L414,277 L414,276 L415,276 L416,276 L416,275 L417,275 L417,274 L418,274 L418,273 L419,273 L419,272 L420,271 L420,270 L421,270 L421,269 L422,269 L422,268 L423,268 L424,268 L424,267 L425,267 L426,267 L427,267 L428,268 L429,268 L429,269 L430,269 L430,270 L431,270 L431,271 L432,271 L432,272 L433,273 L433,274 L434,274 L434,275 L435,275 L435,276 L436,276 L437,276 L437,277 L438,277 L439,277 L439,276 L440,276 L441,276 L441,275 L442,275 L442,274 L443,274 L443,273 L444,273 L444,272 L445,272 L445,271 L446,271 L446,270 L447,269 L448,269 L448,268 L449,268 L449,267 L450,267 L451,267 L452,267 L453,267 L453,268 L454,268 L454,269 L455,269 L455,270 L456,270 L456,271 L457,271 L457,272 L458,272 L458,273 L459,273 L459,274 L460,275 L461,275 L461,276 L462,276 L463,276 L463,277 L464,277 L464,276 L465,276 L466,276 L466,275 L467,275 L467,274 L468,274 L468,273 L469,273 L469,272 L470,272 L470,271 L471,271 L471,270 L472,270 L472,269 L473,269 L473,268 L474,268 L474,267 L475,267 L476,267 L477,267 L478,267 L478,268 L479,268 L479,269 L480,269 L480,270 L481,270 L481,271 L482,271 L482,272 L483,272 L483,273 L484,273 L484,274 L485,274 L485,275 L485,234 L485,233 L485,232 L485,231 L485,230 L485,229 L485,228 L485,227 L485,226 L484,226 L484,225 L484,224 L484,223 L483,222 L483,221 L483,220 L482,220 L482,219 L482,218 L481,217 L481,216 L480,216 L480,215 L480,214 L479,214 L479,213 L478,212 L478,211 L477,211 L477,210 L476,210 L476,209 L475,209 L475,208 L474,208 L474,207 L473,206 L472,206 L472,205 L471,205 L471,204 L470,204 L470,203 L469,203 L468,203 L468,202 L467,202 L467,201 L466,201 L465,201 L465,200 L464,200 L463,200 L463,199 L462,199 L461,199 L460,199 L460,198 L459,198 L458,198 L457,198 L457,197 L456,197 L455,197 L454,197 L453,197 L452,197 L452,196 L451,196 L450,196 L449,196 L448,196 L447,196 L446,196 L445,196 L444,196 L443,196 L443,197 L442,197 L441,197 L440,197 L439,197 L438,197 L438,198 L437,198 L436,198 L435,198 L434,198 L434,199 L433,199 L432,199 L432,200 L431,200 L430,200 L430,201 L429,201 L428,201 L428,202 L427,202 L426,203 L425,203 L425,204 L424,204 L424,205 L423,205 L422,206 L421,206 L421,207 L420,208 L419,209 L419,210 L418,210 L418,211 L417,211 L417,212 L416,212 L416,213 L416,214 L415,214 L415,215 L414,215 L414,216 L414,217 L413,217 L413,218 L413,219 L412,219 L412,220 L412,221 L412,222 L411,222 L411,223 L411,224 L411,225 L411,226 L410,226 L410,227 L410,228 L410,229 L410,230 L410,231 L410,232 L410,233 L410,234 L410,282 L410,275"/>
</g>

<g fill="#000000" fill-opacity="1" stroke="#ffffff" stroke-opacity="1" stroke-width="3.14159" stroke-linecap="square" stroke-linejoin="bevel" transform="matrix(1,0,0,1,0,0)"
font-family="Segoe UI" font-size="12" font-weight="400" font-style="normal" 
>
<path vector-effect="none" fill-rule="evenodd" d="M452,224 L452,223 L452,222 L451,222 L451,221 L450,221 L450,220 L449,220 L448,220 L447,220 L446,220 L445,220 L445,221 L444,221 L444,222 L443,222 L443,223 L443,224 L443,225 L443,226 L443,227 L444,227 L444,228 L445,228 L445,229 L446,229 L447,229 L448,229 L449,229 L450,229 L450,228 L451,228 L451,227 L452,227 L452,226 L452,225 L452,224"/>
<path vector-effect="none" fill-rule="evenodd" d="M473,224 L473,223 L472,223 L472,222 L472,221 L471,221 L471,220 L470,220 L469,220 L468,220 L467,220 L466,220 L465,220 L465,221 L464,221 L464,222 L463,222 L463,223 L463,224 L463,225 L463,226 L463,227 L464,227 L464,228 L465,228 L465,229 L466,229 L467,229 L468,229 L469,229 L470,229 L470,228 L471,228 L472,227 L472,226 L473,226 L473,225 L473,224"/>
</g>

<g fill="#000000" fill-opacity="1" stroke="#000000" stroke-opacity="1" stroke-width="1.2" stroke-linecap="square" stroke-linejoin="bevel" transform="matrix(1,0,0,1,0,0)"
font-family="Segoe UI" font-size="12" font-weight="400" font-style="normal" 
>
</g>

<g fill="#000000" fill-opacity="1" stroke="#000000" stroke-opacity="1" stroke-width="1.2" stroke-linecap="square" stroke-linejoin="bevel" transform="matrix(1,0,0,1,0,0)"
font-family="Segoe UI" font-size="12" font-weight="400" font-style="normal" 
>
</g>
</g>
</svg>
